<svg width="84" height="167" viewBox="0 0 84 167" fill="none" xmlns="http://www.w3.org/2000/svg">
<line x1="52.4903" y1="141.902" x2="57.4903" y2="166.902" stroke="#C4C4C4"/>
<ellipse cx="33.3244" cy="77.0691" rx="15.8989" ry="17.9077" transform="rotate(-10 33.3244 77.0691)" fill="#9C694A"/>
<ellipse cx="48.9567" cy="74.3127" rx="15.8989" ry="17.9077" transform="rotate(-10 48.9567 74.3127)" fill="#9C694A"/>
<rect x="27.7251" y="59.2323" width="20.8594" height="11.9194" rx="5.95968" transform="rotate(-10 27.7251 59.2323)" fill="#9C694A"/>
<rect x="37.8359" y="132.687" width="26.3032" height="11.9194" transform="rotate(-10 37.8359 132.687)" fill="#9C694A"/>
<rect x="35.8252" y="105.17" width="20.8594" height="11.9194" transform="rotate(-10 35.8252 105.17)" fill="#9C694A"/>
<rect x="31.9844" y="83.3861" width="20.8594" height="11.9194" transform="rotate(-10 31.9844 83.3861)" fill="#9C694A"/>
<ellipse cx="37.7557" cy="124.613" rx="17.298" ry="19.4836" transform="rotate(-10 37.7557 124.613)" fill="#9C694A"/>
<ellipse cx="61.0037" cy="120.514" rx="17.298" ry="19.4836" transform="rotate(-10 61.0037 120.514)" fill="#9C694A"/>
<ellipse cx="26.3736" cy="9.5384" rx="1.01957" ry="0.990437" transform="rotate(-10 26.3736 9.5384)" fill="#9C694A"/>
<circle cx="25.6189" cy="13.3099" r="1.01957" transform="rotate(-10 25.6189 13.3099)" fill="#9C694A"/>
<ellipse cx="1.01797" cy="1.02084" rx="1.01797" ry="1.02084" transform="matrix(0.984602 0.174812 -0.172487 0.985012 35.6538 7.60519)" fill="#9C694A"/>
<ellipse cx="1.01797" cy="1.02084" rx="1.01797" ry="1.02084" transform="matrix(0.984602 0.174812 -0.172487 0.985012 35.072 11.3374)" fill="#9C694A"/>
<path fill-rule="evenodd" clip-rule="evenodd" d="M23.2004 89.5317L62.0808 82.676L62.5755 85.4816C59.8709 87.5334 58.3712 90.5139 58.899 93.5074C59.4269 96.5009 61.8555 98.7887 65.0988 99.7917L66.1706 105.87L27.2902 112.726L26.2136 106.62C28.8884 104.57 30.3675 101.607 29.8427 98.6308C29.318 95.6548 26.9146 93.3763 23.6999 92.3642L23.2004 89.5317Z" fill="#9C694A"/>
<ellipse cx="3.38475" cy="6.0995" rx="3.38475" ry="6.0995" transform="matrix(0.984602 0.174812 -0.172487 0.985012 28.7466 5.03799)" fill="#9C694A"/>
<rect x="26.5571" y="14.7713" width="7.74872" height="82.3228" rx="2" transform="rotate(-10 26.5571 14.7713)" fill="black"/>
<line x1="28.3915" y1="15.1578" x2="45.823" y2="114.016" stroke="white" stroke-width="0.1"/>
<line x1="29.6537" y1="14.9352" x2="47.0852" y2="113.794" stroke="white" stroke-width="0.1"/>
<line x1="31.0307" y1="14.6924" x2="48.4621" y2="113.551" stroke="white" stroke-width="0.1"/>
<line x1="32.5229" y1="14.4293" x2="49.9543" y2="113.288" stroke="white" stroke-width="0.1"/>
<path d="M54.1874 144.324C54.2546 145.507 52.5729 145.803 52.2314 144.669L43.2103 114.69C43.0378 114.116 43.4045 113.521 43.9943 113.417L51.239 112.139C51.8288 112.035 52.3771 112.469 52.411 113.067L54.1874 144.324Z" fill="black"/>
<path d="M56.2977 102.036C56.7842 104.138 58.9648 105.897 60.3069 106.366C60.3807 106.392 60.5424 106.401 60.6437 106.311C60.7462 106.221 60.7047 106.132 60.5925 106.067C60.2251 105.856 59.243 105.41 58.4402 104.243C57.3973 102.727 57.4595 97.6754 56.4152 95.7053C55.6161 94.1978 55.2025 93.4937 53.0282 92.2205L52.4669 92.3531C53.5504 92.8334 54.6867 93.8112 55.134 95.222C55.8807 97.5768 55.6951 99.432 56.2977 102.036Z" fill="#C4C4C4"/>
<path d="M34.1797 100.646C33.9179 98.5046 35.3651 96.1052 36.466 95.2056C36.5265 95.1562 36.6755 95.0926 36.8011 95.1418C36.9284 95.1917 36.92 95.29 36.8366 95.3889C36.5635 95.7129 35.7933 96.4682 35.4381 97.8393C34.9765 99.6205 36.7627 104.346 36.4552 106.555C36.2198 108.245 36.072 109.048 34.4643 110.988L33.8916 111.055C34.7454 110.233 35.4788 108.926 35.4166 107.447C35.3128 104.979 34.5039 103.299 34.1797 100.646Z" fill="#C4C4C4"/>
<rect x="41.8127" y="105.317" width="9.08872" height="1.57305" rx="0.786524" transform="rotate(-10 41.8127 105.317)" fill="#CB9472"/>
</svg>
