<svg width="83" height="123" viewBox="0 0 83 123" fill="none" xmlns="http://www.w3.org/2000/svg">
<line x1="49.4932" y1="108.637" x2="51.7901" y2="122.418" stroke="#C4C4C4"/>
<ellipse cx="34.7015" cy="59.006" rx="12.1726" ry="13.7106" transform="rotate(-10 34.7015 59.006)" fill="#9C694A"/>
<ellipse cx="46.67" cy="56.8961" rx="12.1726" ry="13.7106" transform="rotate(-10 46.67 56.8961)" fill="#9C694A"/>
<rect x="30.4143" y="45.3496" width="15.9705" height="9.12575" rx="4.56288" transform="rotate(-10 30.4143 45.3496)" fill="#9C694A"/>
<rect x="38.1555" y="101.589" width="20.1384" height="9.12575" transform="rotate(-10 38.1555 101.589)" fill="#9C694A"/>
<rect x="36.6162" y="80.5205" width="15.9705" height="9.12575" transform="rotate(-10 36.6162 80.5205)" fill="#9C694A"/>
<rect x="33.6755" y="63.8428" width="15.9705" height="9.12575" transform="rotate(-10 33.6755 63.8428)" fill="#9C694A"/>
<ellipse cx="38.0941" cy="95.4073" rx="13.2438" ry="14.9171" transform="rotate(-10 38.0941 95.4073)" fill="#9C694A"/>
<ellipse cx="55.8934" cy="92.2689" rx="13.2438" ry="14.9171" transform="rotate(-10 55.8934 92.2689)" fill="#9C694A"/>
<ellipse cx="29.3797" cy="7.30313" rx="0.780607" ry="0.758304" transform="rotate(-10 29.3797 7.30313)" fill="#9C694A"/>
<circle cx="28.802" cy="10.1906" r="0.780607" transform="rotate(-10 28.802 10.1906)" fill="#9C694A"/>
<ellipse cx="0.779383" cy="0.781578" rx="0.779383" ry="0.781578" transform="matrix(0.984602 0.174812 -0.172487 0.985012 36.4849 5.823)" fill="#9C694A"/>
<ellipse cx="0.779383" cy="0.781578" rx="0.779383" ry="0.781578" transform="matrix(0.984602 0.174812 -0.172487 0.985012 36.0396 8.68066)" fill="#9C694A"/>
<path fill-rule="evenodd" clip-rule="evenodd" d="M26.9502 68.5481L56.718 63.2992L57.0967 65.4472C55.026 67.0181 53.8779 69.3 54.282 71.5919C54.6861 73.8838 56.5455 75.6354 59.0286 76.4033L59.8492 81.0574L30.0814 86.3063L29.2571 81.6314C31.3049 80.0615 32.4372 77.7929 32.0355 75.5145C31.6337 73.2361 29.7938 71.4916 27.3326 70.7167L26.9502 68.5481Z" fill="#9C694A"/>
<ellipse cx="2.59145" cy="4.66993" rx="2.59145" ry="4.66993" transform="matrix(0.984602 0.174812 -0.172487 0.985012 31.1965 3.85718)" fill="#9C694A"/>
<rect x="29.5203" y="11.3096" width="5.93261" height="63.0284" rx="2" transform="rotate(-10 29.5203 11.3096)" fill="black"/>
<line x1="30.9362" y1="11.6031" x2="44.2822" y2="87.2918" stroke="white" stroke-width="0.1"/>
<line x1="31.9028" y1="11.433" x2="45.2487" y2="87.1217" stroke="white" stroke-width="0.1"/>
<line x1="32.957" y1="11.2467" x2="46.3029" y2="86.9354" stroke="white" stroke-width="0.1"/>
<line x1="34.0993" y1="11.0458" x2="47.4452" y2="86.7344" stroke="white" stroke-width="0.1"/>
<path d="M50.5624 108.521C50.6296 109.704 48.9478 110 48.6064 108.865L42.3465 88.0623C42.1739 87.4888 42.5406 86.8933 43.1304 86.7893L48.1577 85.9029C48.7474 85.7989 49.2957 86.233 49.3297 86.8309L50.5624 108.521Z" fill="black"/>
<path d="M52.2905 78.1213C52.6629 79.7305 54.3324 81.0778 55.36 81.4368C55.4165 81.4565 55.5403 81.4632 55.6178 81.3949C55.6963 81.3257 55.6646 81.2572 55.5786 81.2078C55.2973 81.0463 54.5454 80.7045 53.9308 79.8111C53.1323 78.6505 53.18 74.7829 52.3804 73.2745C51.7686 72.1203 51.4519 71.5813 49.7872 70.6065L49.3575 70.708C50.187 71.0757 51.057 71.8243 51.3995 72.9045C51.9711 74.7074 51.8291 76.1278 52.2905 78.1213Z" fill="#C4C4C4"/>
<path d="M35.3561 77.0575C35.1557 75.4179 36.2637 73.5809 37.1066 72.8922C37.1529 72.8543 37.267 72.8056 37.3632 72.8433C37.4606 72.8815 37.4542 72.9568 37.3903 73.0325C37.1812 73.2805 36.5916 73.8588 36.3196 74.9086C35.9662 76.2723 37.3338 79.8904 37.0983 81.5813C36.9181 82.8751 36.8049 83.49 35.5741 84.9753L35.1355 85.0269C35.7893 84.3976 36.3507 83.3966 36.3031 82.2644C36.2237 80.3748 35.6044 79.0886 35.3561 77.0575Z" fill="#C4C4C4"/>
<rect x="41.2004" y="80.6335" width="6.95855" height="1.20436" rx="0.602182" transform="rotate(-10 41.2004 80.6335)" fill="#CB9472"/>
</svg>
