<svg width="301" height="195" viewBox="0 0 301 195" fill="none" xmlns="http://www.w3.org/2000/svg">
<rect x="95.3477" y="65.9856" width="120.607" height="17.884" fill="#9C694A"/>
<rect x="135.961" y="52.4185" width="39.468" height="11.4528" fill="#9C694A"/>
<rect x="92.8809" y="83.8696" width="125.54" height="8.10504" fill="#9C694A"/>
<rect x="132.437" y="122.633" width="54.8852" height="3.25964" fill="#9C694A"/>
<rect x="130.058" y="113.118" width="59.5544" height="9.51461" rx="4.75731" fill="#358B39"/>
<rect x="207.056" y="125.011" width="2.20246" height="19.3816" fill="#9C694A"/>
<rect x="100.898" y="124.395" width="2.11436" height="19.2054" fill="#9C694A"/>
<rect x="101.735" y="82.9446" width="2.64295" height="0.616688" fill="white" stroke="black" stroke-width="0.616688"/>
<rect x="104.994" y="82.9446" width="2.73105" height="0.616688" fill="white" stroke="black" stroke-width="0.616688"/>
<rect x="108.342" y="82.9446" width="2.64295" height="0.616688" fill="white" stroke="black" stroke-width="0.616688"/>
<rect x="111.602" y="82.9446" width="2.73105" height="0.616688" fill="white" stroke="black" stroke-width="0.616688"/>
<rect x="114.949" y="82.9446" width="2.64295" height="0.616688" fill="white" stroke="black" stroke-width="0.616688"/>
<rect x="118.209" y="82.9446" width="2.73105" height="0.616688" fill="white" stroke="black" stroke-width="0.616688"/>
<rect x="121.557" y="82.9446" width="2.64295" height="0.616688" fill="white" stroke="black" stroke-width="0.616688"/>
<rect x="124.817" y="82.9446" width="2.73105" height="0.616688" fill="white" stroke="black" stroke-width="0.616688"/>
<rect x="154.594" y="82.9446" width="2.64295" height="0.616688" fill="white" stroke="black" stroke-width="0.616688"/>
<rect x="157.853" y="82.9446" width="2.73105" height="0.616688" fill="white" stroke="black" stroke-width="0.616688"/>
<rect x="161.201" y="82.9446" width="2.64295" height="0.616688" fill="white" stroke="black" stroke-width="0.616688"/>
<rect x="164.461" y="82.9446" width="2.73105" height="0.616688" fill="white" stroke="black" stroke-width="0.616688"/>
<rect x="167.808" y="82.9446" width="2.64295" height="0.616688" fill="white" stroke="black" stroke-width="0.616688"/>
<rect x="171.068" y="82.9446" width="2.73105" height="0.616688" fill="white" stroke="black" stroke-width="0.616688"/>
<rect x="174.416" y="82.9446" width="2.64295" height="0.616688" fill="white" stroke="black" stroke-width="0.616688"/>
<rect x="177.676" y="82.9446" width="2.73105" height="0.616688" fill="white" stroke="black" stroke-width="0.616688"/>
<rect x="181.023" y="82.9446" width="2.64295" height="0.616688" fill="white" stroke="black" stroke-width="0.616688"/>
<rect x="184.283" y="82.9446" width="2.73105" height="0.616688" fill="white" stroke="black" stroke-width="0.616688"/>
<rect x="187.631" y="82.9446" width="2.64295" height="0.616688" fill="white" stroke="black" stroke-width="0.616688"/>
<rect x="190.891" y="82.9446" width="2.73105" height="0.616688" fill="white" stroke="black" stroke-width="0.616688"/>
<rect x="194.238" y="82.9446" width="2.64295" height="0.616688" fill="white" stroke="black" stroke-width="0.616688"/>
<rect x="197.498" y="82.9446" width="2.73105" height="0.616688" fill="white" stroke="black" stroke-width="0.616688"/>
<rect x="200.845" y="82.9446" width="2.64295" height="0.616688" fill="white" stroke="black" stroke-width="0.616688"/>
<rect x="204.105" y="82.9446" width="2.73105" height="0.616688" fill="white" stroke="black" stroke-width="0.616688"/>
<rect x="207.453" y="82.9446" width="2.64295" height="0.616688" fill="white" stroke="black" stroke-width="0.616688"/>
<rect x="128.165" y="82.9446" width="2.64295" height="0.616688" fill="white" stroke="black" stroke-width="0.616688"/>
<rect x="131.424" y="82.9446" width="2.73105" height="0.616688" fill="white" stroke="black" stroke-width="0.616688"/>
<rect x="134.772" y="82.9446" width="2.64295" height="0.616688" fill="white" stroke="black" stroke-width="0.616688"/>
<rect x="138.031" y="82.9446" width="2.73105" height="0.616688" fill="white" stroke="black" stroke-width="0.616688"/>
<rect x="141.379" y="82.9446" width="2.64295" height="0.616688" fill="white" stroke="black" stroke-width="0.616688"/>
<rect x="144.639" y="82.9446" width="2.73105" height="0.616688" fill="white" stroke="black" stroke-width="0.616688"/>
<rect x="147.987" y="82.9446" width="2.64295" height="0.616688" fill="white" stroke="black" stroke-width="0.616688"/>
<rect x="151.246" y="82.9446" width="2.73105" height="0.616688" fill="white" stroke="black" stroke-width="0.616688"/>
<rect x="92" y="63.8711" width="127.302" height="2.11436" fill="#9C694A"/>
<rect x="92" y="63.6511" width="127.302" height="2.08692" transform="rotate(-30 92 63.6511)" fill="#9C694A"/>
<rect width="59.6249" height="0.434775" transform="matrix(0.5 0.866025 0.866025 -0.5 181.998 12.478)" fill="#9C694A"/>
<path d="M208.069 143.776L204.293 91.3138H211.846L208.069 143.776Z" fill="#9C694A"/>
<rect x="180.979" y="125.893" width="2.11436" height="18.1482" fill="#9C694A"/>
<path d="M181.992 143.6L178.979 125.364H185.006L181.992 143.6Z" fill="#9C694A"/>
<rect x="136.225" y="125.893" width="2.20246" height="18.1482" fill="#9C694A"/>
<path d="M137.327 143.6L134.313 125.364H140.34L137.327 143.6Z" fill="#9C694A"/>
<path d="M101.999 143.776L98.2224 91.3138H105.776L101.999 143.776Z" fill="#9C694A"/>
<path d="M150.072 75.6603C149.752 75.6603 149.495 75.5786 149.302 75.4153C149.108 75.2519 149.012 75.0086 149.012 74.6853C149.012 74.5319 149.042 74.3903 149.102 74.2603C149.165 74.1269 149.273 74.0469 149.427 74.0203C149.41 74.0703 149.402 74.1269 149.402 74.1903C149.402 74.2936 149.415 74.4103 149.442 74.5403C149.472 74.6669 149.502 74.7769 149.532 74.8703C149.578 75.0036 149.642 75.1186 149.722 75.2153C149.805 75.3086 149.893 75.3819 149.987 75.4353C150.083 75.4853 150.17 75.5103 150.247 75.5103C150.32 75.5103 150.378 75.4886 150.422 75.4453C150.468 75.3986 150.492 75.3236 150.492 75.2203C150.492 75.0903 150.457 74.9636 150.387 74.8403C150.317 74.7136 150.233 74.5869 150.137 74.4603C150.04 74.3336 149.948 74.2069 149.862 74.0803C149.795 73.9769 149.738 73.8719 149.692 73.7653C149.645 73.6553 149.622 73.5436 149.622 73.4303C149.622 73.2503 149.662 73.0986 149.742 72.9753C149.822 72.8486 149.928 72.7536 150.062 72.6903C150.198 72.6236 150.35 72.5903 150.517 72.5903C150.593 72.5903 150.678 72.5953 150.772 72.6053C150.865 72.6153 150.953 72.6369 151.037 72.6703L151.112 72.7003C151.178 72.6036 151.253 72.5353 151.337 72.4953C151.42 72.4553 151.493 72.4353 151.557 72.4353C151.607 72.4353 151.647 72.4453 151.677 72.4653C151.71 72.4819 151.727 72.5053 151.727 72.5353C151.727 72.5653 151.71 72.5953 151.677 72.6253C151.547 72.7486 151.445 72.8653 151.372 72.9753C151.298 73.0819 151.228 73.2053 151.162 73.3453C151.098 73.4819 151.062 73.6203 151.052 73.7603C151.032 73.7669 151.018 73.7703 151.012 73.7703C150.975 73.7703 150.948 73.7453 150.932 73.6953C150.915 73.6419 150.907 73.5753 150.907 73.4953C150.907 73.4019 150.917 73.3003 150.937 73.1903C150.957 73.0769 150.983 72.9769 151.017 72.8903C150.997 72.8703 150.97 72.8536 150.937 72.8403C150.903 72.8236 150.865 72.8153 150.822 72.8153C150.742 72.8153 150.668 72.8469 150.602 72.9103C150.535 72.9736 150.48 73.0519 150.437 73.1453C150.397 73.2353 150.377 73.3236 150.377 73.4103C150.377 73.5236 150.402 73.6369 150.452 73.7503C150.505 73.8636 150.568 73.9753 150.642 74.0853C150.718 74.1953 150.79 74.3053 150.857 74.4153C150.917 74.5186 150.96 74.6169 150.987 74.7103C151.017 74.8003 151.032 74.8853 151.032 74.9653C151.032 75.1786 150.943 75.3486 150.767 75.4753C150.593 75.5986 150.362 75.6603 150.072 75.6603ZM151.764 75.5803C151.644 75.5803 151.535 75.5469 151.439 75.4803C151.342 75.4103 151.294 75.2986 151.294 75.1453C151.294 75.0253 151.317 74.8786 151.364 74.7053C151.41 74.5319 151.472 74.3553 151.549 74.1753C151.625 73.9919 151.709 73.8269 151.799 73.6803H151.584C151.564 73.6803 151.554 73.6719 151.554 73.6553C151.554 73.6419 151.562 73.6269 151.579 73.6103C151.595 73.5903 151.615 73.5769 151.639 73.5703C151.692 73.5536 151.76 73.5236 151.844 73.4803C151.93 73.4336 152.02 73.3803 152.114 73.3203C152.207 73.2603 152.295 73.2003 152.379 73.1403C152.462 73.0803 152.529 73.0286 152.579 72.9853C152.609 72.9586 152.64 72.9403 152.674 72.9303C152.71 72.9203 152.745 72.9153 152.779 72.9153C152.835 72.9153 152.879 72.9253 152.909 72.9453C152.939 72.9653 152.939 72.9853 152.909 73.0053C152.882 73.0219 152.845 73.0636 152.799 73.1303C152.752 73.1969 152.704 73.2703 152.654 73.3503C152.607 73.4303 152.565 73.5019 152.529 73.5653H152.909C152.915 73.5653 152.919 73.5703 152.919 73.5803C152.919 73.5969 152.912 73.6186 152.899 73.6453C152.885 73.6686 152.872 73.6803 152.859 73.6803H152.464C152.397 73.7969 152.324 73.9303 152.244 74.0803C152.164 74.2303 152.087 74.3836 152.014 74.5403C151.944 74.6936 151.885 74.8369 151.839 74.9703C151.792 75.1003 151.769 75.2036 151.769 75.2803C151.769 75.3636 151.807 75.4053 151.884 75.4053C151.964 75.4053 152.054 75.3669 152.154 75.2903C152.237 75.2203 152.315 75.1336 152.389 75.0303C152.459 74.9336 152.52 74.8336 152.574 74.7303C152.63 74.6269 152.677 74.5386 152.714 74.4653C152.727 74.4419 152.745 74.4303 152.769 74.4303C152.792 74.4303 152.81 74.4403 152.824 74.4603C152.84 74.4769 152.842 74.4986 152.829 74.5253C152.779 74.6253 152.715 74.7419 152.639 74.8753C152.562 75.0086 152.48 75.1303 152.394 75.2403C152.324 75.3269 152.255 75.3936 152.189 75.4403C152.125 75.4836 152.057 75.5169 151.984 75.5403C151.914 75.5669 151.84 75.5803 151.764 75.5803ZM153.288 75.6153C153.045 75.6153 152.868 75.5603 152.758 75.4503C152.651 75.3403 152.598 75.1953 152.598 75.0153C152.598 74.8786 152.626 74.7286 152.683 74.5653C152.726 74.4319 152.785 74.2969 152.858 74.1603C152.931 74.0203 153.016 73.8919 153.113 73.7753C153.21 73.6553 153.316 73.5603 153.433 73.4903C153.55 73.4169 153.673 73.3803 153.803 73.3803C153.97 73.3803 154.105 73.4069 154.208 73.4603C154.315 73.5103 154.368 73.5936 154.368 73.7103C154.368 73.7969 154.333 73.9053 154.263 74.0353C154.17 74.2153 154.033 74.3636 153.853 74.4803C153.673 74.5969 153.471 74.6636 153.248 74.6803C153.198 74.8169 153.168 74.9286 153.158 75.0153C153.155 75.0319 153.153 75.0486 153.153 75.0653C153.153 75.0786 153.153 75.0936 153.153 75.1103C153.153 75.2203 153.178 75.3003 153.228 75.3503C153.278 75.3969 153.34 75.4203 153.413 75.4203C153.55 75.4203 153.67 75.3853 153.773 75.3153C153.876 75.2453 153.966 75.1569 154.043 75.0503C154.123 74.9436 154.191 74.8369 154.248 74.7303C154.281 74.6703 154.31 74.6153 154.333 74.5653C154.356 74.5119 154.375 74.4736 154.388 74.4503C154.405 74.4236 154.423 74.4103 154.443 74.4103C154.463 74.4103 154.481 74.4219 154.498 74.4453C154.515 74.4653 154.516 74.4886 154.503 74.5153C154.46 74.6019 154.4 74.7169 154.323 74.8603C154.246 75.0036 154.16 75.1303 154.063 75.2403C153.956 75.3669 153.841 75.4619 153.718 75.5253C153.598 75.5853 153.455 75.6153 153.288 75.6153ZM153.313 74.5353C153.463 74.4786 153.595 74.3769 153.708 74.2303C153.825 74.0836 153.903 73.9219 153.943 73.7453C153.946 73.7286 153.948 73.7136 153.948 73.7003C153.951 73.6869 153.953 73.6736 153.953 73.6603C153.953 73.5936 153.933 73.5603 153.893 73.5603C153.86 73.5603 153.825 73.5836 153.788 73.6303C153.735 73.6936 153.678 73.7803 153.618 73.8903C153.558 73.9969 153.505 74.1019 153.458 74.2053C153.411 74.3086 153.376 74.3869 153.353 74.4403L153.313 74.5353ZM154.703 75.5803C154.583 75.5803 154.475 75.5469 154.378 75.4803C154.281 75.4103 154.233 75.2969 154.233 75.1403C154.233 75.0369 154.25 74.9169 154.283 74.7803C154.32 74.6436 154.365 74.5036 154.418 74.3603C154.471 74.2136 154.526 74.0786 154.583 73.9553C154.643 73.8286 154.696 73.7253 154.743 73.6453C154.816 73.5286 154.898 73.4569 154.988 73.4303C155.081 73.4036 155.195 73.3903 155.328 73.3903C155.425 73.3903 155.505 73.4019 155.568 73.4253C155.631 73.4453 155.641 73.4686 155.598 73.4953C155.535 73.5386 155.453 73.6353 155.353 73.7853C155.253 73.9353 155.156 74.1036 155.063 74.2903C155.036 74.3436 155.003 74.4153 154.963 74.5053C154.923 74.5919 154.883 74.6853 154.843 74.7853C154.806 74.8819 154.775 74.9753 154.748 75.0653C154.721 75.1519 154.708 75.2236 154.708 75.2803C154.708 75.3636 154.746 75.4053 154.823 75.4053C154.903 75.4053 154.993 75.3669 155.093 75.2903C155.14 75.2536 155.183 75.2119 155.223 75.1653C155.263 75.1186 155.3 75.0719 155.333 75.0253C155.4 74.9353 155.46 74.8386 155.513 74.7353C155.57 74.6286 155.621 74.5286 155.668 74.4353C155.678 74.4153 155.691 74.4053 155.708 74.4053C155.731 74.4053 155.751 74.4169 155.768 74.4403C155.785 74.4636 155.786 74.4886 155.773 74.5153C155.723 74.6153 155.661 74.7336 155.588 74.8703C155.515 75.0036 155.43 75.1269 155.333 75.2403C155.25 75.3369 155.155 75.4186 155.048 75.4853C154.945 75.5486 154.83 75.5803 154.703 75.5803ZM155.418 73.1403C155.361 73.1403 155.316 73.1219 155.283 73.0853C155.25 73.0453 155.233 72.9936 155.233 72.9303C155.233 72.8536 155.253 72.7836 155.293 72.7203C155.333 72.6569 155.383 72.6053 155.443 72.5653C155.503 72.5253 155.565 72.5053 155.628 72.5053C155.685 72.5053 155.73 72.5253 155.763 72.5653C155.796 72.6019 155.813 72.6486 155.813 72.7053C155.813 72.7786 155.793 72.8486 155.753 72.9153C155.713 72.9819 155.663 73.0369 155.603 73.0803C155.543 73.1203 155.481 73.1403 155.418 73.1403ZM156.828 75.5803C156.658 75.5803 156.543 75.5336 156.483 75.4403C156.423 75.3469 156.393 75.2386 156.393 75.1153C156.393 75.0253 156.403 74.9353 156.423 74.8453C156.443 74.7553 156.464 74.6753 156.488 74.6053C156.511 74.5353 156.528 74.4869 156.538 74.4603C156.578 74.3403 156.619 74.2253 156.663 74.1153C156.709 74.0019 156.744 73.9236 156.768 73.8803C156.758 73.8969 156.721 73.9453 156.658 74.0253C156.594 74.1053 156.519 74.2053 156.433 74.3253C156.349 74.4419 156.266 74.5669 156.183 74.7003C156.099 74.8303 156.029 74.9569 155.973 75.0803C155.919 75.2003 155.893 75.3036 155.893 75.3903C155.893 75.4503 155.906 75.4936 155.933 75.5203C155.943 75.5303 155.948 75.5386 155.948 75.5453C155.948 75.5619 155.929 75.5669 155.893 75.5603C155.816 75.5469 155.741 75.5336 155.668 75.5203C155.594 75.5036 155.533 75.4719 155.483 75.4253C155.436 75.3753 155.413 75.2936 155.413 75.1803C155.413 75.0903 155.436 74.9819 155.483 74.8553C155.529 74.7253 155.584 74.5919 155.648 74.4553C155.711 74.3186 155.766 74.1919 155.813 74.0753C155.823 74.0486 155.839 74.0086 155.863 73.9553C155.886 73.8986 155.909 73.8403 155.933 73.7803C155.959 73.7169 155.979 73.6619 155.993 73.6153C156.006 73.5653 156.009 73.5319 156.003 73.5153C155.996 73.5019 155.993 73.4919 155.993 73.4853C155.993 73.4453 156.019 73.4253 156.073 73.4253C156.126 73.4253 156.179 73.4336 156.233 73.4503C156.289 73.4636 156.339 73.4869 156.383 73.5203C156.429 73.5536 156.466 73.5936 156.493 73.6403C156.519 73.6869 156.533 73.7386 156.533 73.7953C156.533 73.8319 156.524 73.8753 156.508 73.9253C156.501 73.9486 156.486 73.9803 156.463 74.0203C156.443 74.0569 156.421 74.0969 156.398 74.1403C156.374 74.1836 156.349 74.2286 156.323 74.2753C156.299 74.3219 156.291 74.3469 156.298 74.3503C156.381 74.2036 156.471 74.0669 156.568 73.9403C156.668 73.8103 156.758 73.6986 156.838 73.6053C156.921 73.5119 156.976 73.4436 157.003 73.4003C157.029 73.3803 157.073 73.3703 157.133 73.3703C157.203 73.3703 157.274 73.3919 157.348 73.4353C157.421 73.4786 157.458 73.5569 157.458 73.6703C157.458 73.7636 157.424 73.8769 157.358 74.0103C157.214 74.2836 157.104 74.5303 157.028 74.7503C156.951 74.9669 156.913 75.1269 156.913 75.2303C156.913 75.3036 156.933 75.3403 156.973 75.3403C157.019 75.3403 157.073 75.3103 157.133 75.2503C157.193 75.1903 157.249 75.1186 157.303 75.0353C157.376 74.9286 157.443 74.8153 157.503 74.6953C157.566 74.5753 157.609 74.4919 157.633 74.4453C157.643 74.4253 157.658 74.4153 157.678 74.4153C157.698 74.4153 157.716 74.4269 157.733 74.4503C157.753 74.4703 157.756 74.4936 157.743 74.5203C157.719 74.5669 157.684 74.6319 157.638 74.7153C157.594 74.7986 157.544 74.8886 157.488 74.9853C157.431 75.0786 157.369 75.1686 157.303 75.2553C157.229 75.3553 157.156 75.4353 157.083 75.4953C157.009 75.5519 156.924 75.5803 156.828 75.5803ZM157.79 75.5653C157.66 75.5653 157.569 75.5286 157.515 75.4553C157.465 75.3819 157.44 75.2936 157.44 75.1903C157.44 75.0369 157.464 74.8903 157.51 74.7503C157.557 74.6069 157.612 74.4636 157.675 74.3203C157.742 74.1769 157.804 74.0319 157.86 73.8853C157.887 73.8086 157.91 73.7353 157.93 73.6653C157.95 73.5919 157.96 73.5336 157.96 73.4903C157.96 73.4569 157.955 73.4336 157.945 73.4203V73.4053C157.945 73.3886 157.957 73.3819 157.98 73.3853C158.007 73.3919 158.032 73.3986 158.055 73.4053C158.082 73.4086 158.109 73.4153 158.135 73.4253C158.265 73.4686 158.354 73.5269 158.4 73.6003C158.45 73.6703 158.475 73.7436 158.475 73.8203C158.475 73.8336 158.474 73.8469 158.47 73.8603C158.47 73.8736 158.469 73.8869 158.465 73.9003C158.459 73.9303 158.437 73.9919 158.4 74.0853C158.364 74.1753 158.322 74.2719 158.275 74.3753C158.222 74.4986 158.167 74.6203 158.11 74.7403C158.054 74.8569 158.002 74.9869 157.955 75.1303C157.952 75.1403 157.95 75.1553 157.95 75.1753C157.95 75.2219 157.97 75.2453 158.01 75.2453C158.047 75.2453 158.082 75.2286 158.115 75.1953C158.165 75.1453 158.225 75.0686 158.295 74.9653C158.365 74.8586 158.452 74.7069 158.555 74.5103C158.622 74.3869 158.674 74.2753 158.71 74.1753C158.75 74.0719 158.784 73.9703 158.81 73.8703C158.82 73.8236 158.829 73.7786 158.835 73.7353C158.842 73.6886 158.845 73.6486 158.845 73.6153C158.845 73.5753 158.84 73.5486 158.83 73.5353C158.824 73.5219 158.822 73.5103 158.825 73.5003C158.829 73.4903 158.839 73.4869 158.855 73.4903C158.942 73.4969 159.025 73.5186 159.105 73.5553C159.189 73.5886 159.257 73.6353 159.31 73.6953C159.364 73.7553 159.39 73.8303 159.39 73.9203C159.39 73.9536 159.385 73.9886 159.375 74.0253C159.365 74.0619 159.344 74.1253 159.31 74.2153C159.277 74.3053 159.237 74.4069 159.19 74.5203C159.147 74.6336 159.105 74.7453 159.065 74.8553C159.025 74.9653 158.995 75.0603 158.975 75.1403C158.972 75.1536 158.969 75.1653 158.965 75.1753C158.965 75.1819 158.965 75.1886 158.965 75.1953C158.965 75.2353 158.979 75.2553 159.005 75.2553C159.025 75.2553 159.054 75.2403 159.09 75.2103C159.14 75.1636 159.204 75.0853 159.28 74.9753C159.36 74.8619 159.452 74.7069 159.555 74.5103C159.632 74.3669 159.692 74.2253 159.735 74.0853C159.782 73.9453 159.805 73.8219 159.805 73.7153C159.805 73.5953 159.774 73.5053 159.71 73.4453C159.697 73.4319 159.69 73.4253 159.69 73.4253C159.69 73.4186 159.71 73.4136 159.75 73.4103C159.767 73.4103 159.784 73.4103 159.8 73.4103C159.82 73.4069 159.837 73.4053 159.85 73.4053C160.027 73.4053 160.155 73.4353 160.235 73.4953C160.319 73.5519 160.36 73.6203 160.36 73.7003C160.36 73.7169 160.357 73.7386 160.35 73.7653C160.33 73.8519 160.29 73.9586 160.23 74.0853C160.174 74.2086 160.105 74.3386 160.025 74.4753C159.969 74.5719 159.929 74.6569 159.905 74.7303C159.885 74.8003 159.875 74.8669 159.875 74.9303C159.875 75.0569 159.91 75.1203 159.98 75.1203C160.037 75.1203 160.094 75.0836 160.15 75.0103C160.207 74.9436 160.264 74.8569 160.32 74.7503C160.38 74.6436 160.43 74.5486 160.47 74.4653C160.48 74.4419 160.499 74.4303 160.525 74.4303C160.545 74.4303 160.564 74.4403 160.58 74.4603C160.597 74.4769 160.599 74.4986 160.585 74.5253C160.569 74.5586 160.55 74.5953 160.53 74.6353C160.514 74.6719 160.494 74.7103 160.47 74.7503C160.437 74.8103 160.397 74.8803 160.35 74.9603C160.304 75.0403 160.247 75.1119 160.18 75.1753C160.117 75.2353 160.04 75.2653 159.95 75.2653C159.877 75.2653 159.822 75.2353 159.785 75.1753C159.749 75.1153 159.73 75.0486 159.73 74.9753C159.73 74.9619 159.73 74.9486 159.73 74.9353C159.73 74.9219 159.732 74.9086 159.735 74.8953C159.649 75.0153 159.55 75.1269 159.44 75.2303C159.334 75.3303 159.224 75.4119 159.11 75.4753C159 75.5353 158.894 75.5653 158.79 75.5653C158.67 75.5653 158.584 75.5269 158.53 75.4503C158.48 75.3703 158.455 75.2736 158.455 75.1603C158.455 75.1303 158.457 75.1003 158.46 75.0703C158.467 75.0369 158.472 75.0053 158.475 74.9753C158.362 75.1453 158.249 75.2869 158.135 75.4003C158.022 75.5103 157.907 75.5653 157.79 75.5653ZM161.047 75.6153C160.804 75.6153 160.627 75.5603 160.517 75.4503C160.41 75.3403 160.357 75.1953 160.357 75.0153C160.357 74.8786 160.385 74.7286 160.442 74.5653C160.485 74.4319 160.544 74.2969 160.617 74.1603C160.69 74.0203 160.775 73.8919 160.872 73.7753C160.969 73.6553 161.075 73.5603 161.192 73.4903C161.309 73.4169 161.432 73.3803 161.562 73.3803C161.729 73.3803 161.864 73.4069 161.967 73.4603C162.074 73.5103 162.127 73.5936 162.127 73.7103C162.127 73.7969 162.092 73.9053 162.022 74.0353C161.929 74.2153 161.792 74.3636 161.612 74.4803C161.432 74.5969 161.23 74.6636 161.007 74.6803C160.957 74.8169 160.927 74.9286 160.917 75.0153C160.914 75.0319 160.912 75.0486 160.912 75.0653C160.912 75.0786 160.912 75.0936 160.912 75.1103C160.912 75.2203 160.937 75.3003 160.987 75.3503C161.037 75.3969 161.099 75.4203 161.172 75.4203C161.309 75.4203 161.429 75.3853 161.532 75.3153C161.635 75.2453 161.725 75.1569 161.802 75.0503C161.882 74.9436 161.95 74.8369 162.007 74.7303C162.04 74.6703 162.069 74.6153 162.092 74.5653C162.115 74.5119 162.134 74.4736 162.147 74.4503C162.164 74.4236 162.182 74.4103 162.202 74.4103C162.222 74.4103 162.24 74.4219 162.257 74.4453C162.274 74.4653 162.275 74.4886 162.262 74.5153C162.219 74.6019 162.159 74.7169 162.082 74.8603C162.005 75.0036 161.919 75.1303 161.822 75.2403C161.715 75.3669 161.6 75.4619 161.477 75.5253C161.357 75.5853 161.214 75.6153 161.047 75.6153ZM161.072 74.5353C161.222 74.4786 161.354 74.3769 161.467 74.2303C161.584 74.0836 161.662 73.9219 161.702 73.7453C161.705 73.7286 161.707 73.7136 161.707 73.7003C161.71 73.6869 161.712 73.6736 161.712 73.6603C161.712 73.5936 161.692 73.5603 161.652 73.5603C161.619 73.5603 161.584 73.5836 161.547 73.6303C161.494 73.6936 161.437 73.7803 161.377 73.8903C161.317 73.9969 161.264 74.1019 161.217 74.2053C161.17 74.3086 161.135 74.3869 161.112 74.4403L161.072 74.5353ZM162.292 76.5353C162.128 76.5386 162 76.5169 161.907 76.4703C161.817 76.4236 161.772 76.3503 161.772 76.2503C161.772 76.1636 161.803 76.0869 161.867 76.0203C161.933 75.9569 162.017 75.9003 162.117 75.8503C162.22 75.8036 162.327 75.7636 162.437 75.7303C162.547 75.6969 162.648 75.6686 162.742 75.6453L162.912 75.1503C162.895 75.1903 162.865 75.2436 162.822 75.3103C162.782 75.3736 162.73 75.4319 162.667 75.4853C162.607 75.5386 162.535 75.5653 162.452 75.5653C162.272 75.5653 162.147 75.5219 162.077 75.4353C162.01 75.3486 161.977 75.2436 161.977 75.1203C161.977 75.0036 161.995 74.8819 162.032 74.7553C162.072 74.6253 162.117 74.5053 162.167 74.3953C162.217 74.2819 162.257 74.1936 162.287 74.1303C162.387 73.9236 162.485 73.7703 162.582 73.6703C162.682 73.5669 162.785 73.4986 162.892 73.4653C163.002 73.4319 163.117 73.4153 163.237 73.4153C163.323 73.4153 163.415 73.4203 163.512 73.4303C163.608 73.4369 163.712 73.4403 163.822 73.4403C163.942 73.4403 164.068 73.4303 164.202 73.4103C164.212 73.4069 164.227 73.4053 164.247 73.4053C164.287 73.4053 164.307 73.4136 164.307 73.4303C164.307 73.4469 164.288 73.4653 164.252 73.4853C164.205 73.5086 164.153 73.5653 164.097 73.6553C164.04 73.7419 163.983 73.8419 163.927 73.9553C163.873 74.0686 163.823 74.1769 163.777 74.2803C163.733 74.3836 163.702 74.4636 163.682 74.5203C163.638 74.6436 163.592 74.7836 163.542 74.9403C163.495 75.0969 163.442 75.2553 163.382 75.4153C163.468 75.3586 163.55 75.2936 163.627 75.2203C163.703 75.1469 163.778 75.0653 163.852 74.9753C163.912 74.9019 163.968 74.8219 164.022 74.7353C164.078 74.6486 164.128 74.5586 164.172 74.4653C164.188 74.4353 164.21 74.4203 164.237 74.4203C164.26 74.4203 164.278 74.4303 164.292 74.4503C164.308 74.4703 164.308 74.4936 164.292 74.5203C164.155 74.7903 164.008 75.0136 163.852 75.1903C163.728 75.3236 163.602 75.4319 163.472 75.5153C163.445 75.5319 163.418 75.5469 163.392 75.5603C163.365 75.5769 163.338 75.5919 163.312 75.6053C163.245 75.7686 163.165 75.9203 163.072 76.0603C162.978 76.2003 162.868 76.3136 162.742 76.4003C162.615 76.4869 162.465 76.5319 162.292 76.5353ZM162.542 75.4303C162.592 75.4303 162.647 75.3869 162.707 75.3003C162.767 75.2136 162.827 75.1069 162.887 74.9803C162.897 74.9603 162.918 74.9103 162.952 74.8303C162.988 74.7503 163.03 74.6536 163.077 74.5403C163.127 74.4269 163.178 74.3086 163.232 74.1853C163.285 74.0619 163.333 73.9453 163.377 73.8353C163.423 73.7253 163.46 73.6353 163.487 73.5653C163.49 73.5553 163.492 73.5436 163.492 73.5303C163.492 73.5103 163.482 73.5003 163.462 73.5003C163.442 73.5003 163.418 73.5086 163.392 73.5253C163.365 73.5386 163.34 73.5536 163.317 73.5703C163.273 73.6036 163.217 73.6753 163.147 73.7853C163.08 73.8953 163.008 74.0253 162.932 74.1753C162.858 74.3253 162.787 74.4786 162.717 74.6353C162.65 74.7886 162.595 74.9303 162.552 75.0603C162.508 75.1869 162.487 75.2819 162.487 75.3453C162.487 75.4019 162.505 75.4303 162.542 75.4303ZM162.142 76.3303C162.245 76.3303 162.345 76.2803 162.442 76.1803C162.542 76.0803 162.623 75.9536 162.687 75.8003C162.59 75.8269 162.487 75.8586 162.377 75.8953C162.267 75.9353 162.173 75.9819 162.097 76.0353C162.02 76.0886 161.982 76.1486 161.982 76.2153C161.982 76.2486 161.992 76.2753 162.012 76.2953C162.035 76.3186 162.078 76.3303 162.142 76.3303Z" fill="#ECBE47"/>
<rect width="21.5337" height="6.92301" rx="3.4615" transform="matrix(0.765017 0.643505 -0.642075 0.767063 249.32 106.703)" fill="#ECBE47"/>
<rect width="29.0195" height="13.1555" rx="6.57773" transform="matrix(0.765163 -0.644512 0.641053 0.766927 252.806 172.461)" fill="#ECBE47"/>
<rect width="53.0136" height="12.1443" rx="6.07214" transform="matrix(0.342494 -0.93952 0.939865 0.341547 237.679 165.155)" fill="#ECBE47"/>
<path fill-rule="evenodd" clip-rule="evenodd" d="M251.34 163.139C250.515 165.403 251.682 167.906 253.948 168.73C256.213 169.553 258.719 168.384 259.544 166.12L266.049 148.276C272.067 152.797 274.419 161.884 271.265 170.536C267.527 180.79 257.47 186.55 248.802 183.4C240.134 180.25 236.138 169.384 239.876 159.129C242.974 150.631 250.413 145.22 257.804 145.409L251.34 163.139Z" fill="#ECBE47"/>
<rect width="7.71566" height="6.86111" rx="3.43056" transform="matrix(0.765017 0.643505 -0.642075 0.767063 245.438 103.047)" fill="#9C694A"/>
<mask id="path-56-inside-1_120_15067" fill="white">
<ellipse cx="3.29883" cy="2.56363" rx="3.29883" ry="2.56363" transform="matrix(0.765017 0.643505 -0.642075 0.767063 257.567 128.841)"/>
</mask>
<path d="M257.143 131.836C257.877 130.959 258.802 130.802 259.253 130.819C259.696 130.836 259.926 130.992 260.009 131.062L253.588 138.732C256.141 140.88 261.405 142.319 264.793 138.271L257.143 131.836ZM260.009 131.062C260.092 131.132 260.285 131.332 260.378 131.766C260.473 132.208 260.48 133.148 259.746 134.025L252.096 127.59C248.708 131.638 251.036 136.585 253.588 138.732L260.009 131.062ZM259.746 134.025C259.012 134.902 258.087 135.059 257.636 135.042C257.194 135.025 256.964 134.869 256.88 134.799L263.301 127.129C260.748 124.981 255.484 123.542 252.096 127.59L259.746 134.025ZM256.88 134.799C256.797 134.729 256.604 134.529 256.511 134.095C256.416 133.653 256.409 132.713 257.143 131.836L264.793 138.271C268.182 134.223 265.854 129.276 263.301 127.129L256.88 134.799Z" fill="#3A464E" mask="url(#path-56-inside-1_120_15067)"/>
<mask id="path-58-inside-2_120_15067" fill="white">
<ellipse cx="3.29883" cy="2.56363" rx="3.29883" ry="2.56363" transform="matrix(0.765017 0.643505 -0.642075 0.767063 247.538 155.521)"/>
</mask>
<path d="M247.114 158.516C247.848 157.639 248.773 157.483 249.224 157.5C249.666 157.516 249.897 157.672 249.98 157.742L243.559 165.413C246.112 167.56 251.376 168.999 254.764 164.951L247.114 158.516ZM249.98 157.742C250.063 157.812 250.256 158.012 250.349 158.446C250.444 158.888 250.451 159.829 249.717 160.705L242.067 154.27C238.678 158.318 241.006 163.265 243.559 165.413L249.98 157.742ZM249.717 160.705C248.983 161.582 248.058 161.739 247.607 161.722C247.165 161.705 246.934 161.55 246.851 161.48L253.272 153.809C250.719 151.662 245.455 150.223 242.067 154.27L249.717 160.705ZM246.851 161.48C246.768 161.41 246.575 161.209 246.482 160.775C246.387 160.333 246.38 159.393 247.114 158.516L254.764 164.951C258.153 160.903 255.825 155.956 253.272 153.809L246.851 161.48Z" fill="#3A464E" mask="url(#path-58-inside-2_120_15067)"/>
<mask id="path-60-inside-3_120_15067" fill="white">
<ellipse cx="11.0595" cy="3.82565" rx="11.0595" ry="3.82565" transform="matrix(0.641053 0.766927 -0.765163 0.644512 269.641 145.118)"/>
</mask>
<path d="M273.201 155.344C276.67 152.422 280.354 152.823 281.435 153.027C282.628 153.253 283.158 153.638 282.91 153.489C282.516 153.252 281.395 152.396 280.059 150.797L261.695 166.265C264.274 169.35 267.353 172.183 270.584 174.124C272.149 175.064 274.348 176.159 276.959 176.654C279.458 177.127 284.308 177.354 288.586 173.75L273.201 155.344ZM280.059 150.797C278.722 149.198 278.077 147.941 277.913 147.511C277.81 147.239 278.095 147.83 278.11 149.049C278.123 150.153 277.876 153.864 274.407 156.787L259.021 138.38C254.744 141.984 254.124 146.818 254.154 149.37C254.186 152.038 254.879 154.402 255.529 156.112C256.872 159.644 259.116 163.18 261.695 166.265L280.059 150.797ZM274.407 156.787C270.937 159.709 267.254 159.308 266.173 159.103C264.979 158.877 264.449 158.493 264.698 158.642C265.091 158.878 266.212 159.735 267.549 161.334L285.913 145.865C283.334 142.78 280.255 139.948 277.023 138.006C275.459 137.067 273.26 135.971 270.648 135.477C268.15 135.004 263.299 134.777 259.021 138.38L274.407 156.787ZM267.549 161.334C268.886 162.933 269.531 164.19 269.695 164.62C269.798 164.892 269.513 164.301 269.498 163.082C269.485 161.978 269.732 158.266 273.201 155.344L288.586 173.75C292.864 170.147 293.484 165.312 293.454 162.76C293.422 160.093 292.729 157.728 292.079 156.019C290.736 152.487 288.492 148.951 285.913 145.865L267.549 161.334Z" fill="#3A464E" mask="url(#path-60-inside-3_120_15067)"/>
<mask id="path-62-inside-4_120_15067" fill="white">
<ellipse cx="3.29883" cy="2.56363" rx="3.29883" ry="2.56363" transform="matrix(0.765017 0.643505 -0.642075 0.767063 255.102 135.602)"/>
</mask>
<path d="M254.678 138.597C255.412 137.72 256.337 137.564 256.788 137.581C257.23 137.597 257.461 137.753 257.544 137.823L251.123 145.493C253.676 147.641 258.94 149.08 262.328 145.032L254.678 138.597ZM257.544 137.823C257.627 137.893 257.82 138.093 257.913 138.527C258.008 138.969 258.015 139.91 257.281 140.786L249.631 134.351C246.243 138.399 248.57 143.346 251.123 145.493L257.544 137.823ZM257.281 140.786C256.547 141.663 255.622 141.82 255.171 141.803C254.729 141.786 254.499 141.631 254.415 141.561L260.836 133.89C258.283 131.743 253.019 130.303 249.631 134.351L257.281 140.786ZM254.415 141.561C254.332 141.491 254.139 141.29 254.046 140.856C253.951 140.414 253.944 139.474 254.678 138.597L262.328 145.032C265.717 140.984 263.389 136.037 260.836 133.89L254.415 141.561Z" fill="#3A464E" mask="url(#path-62-inside-4_120_15067)"/>
<mask id="path-64-inside-5_120_15067" fill="white">
<ellipse cx="3.29883" cy="2.56363" rx="3.29883" ry="2.56363" transform="matrix(0.765017 0.643505 -0.642075 0.767063 252.686 142.23)"/>
</mask>
<path d="M252.262 145.224C252.996 144.348 253.921 144.191 254.371 144.208C254.814 144.225 255.044 144.38 255.127 144.45L248.707 152.121C251.26 154.268 256.524 155.707 259.912 151.659L252.262 145.224ZM255.127 144.45C255.211 144.52 255.404 144.721 255.497 145.155C255.592 145.597 255.599 146.537 254.865 147.414L247.214 140.979C243.826 145.027 246.154 149.974 248.707 152.121L255.127 144.45ZM254.865 147.414C254.131 148.291 253.206 148.447 252.755 148.43C252.312 148.414 252.082 148.258 251.999 148.188L258.42 140.517C255.867 138.37 250.603 136.931 247.214 140.979L254.865 147.414ZM251.999 148.188C251.916 148.118 251.723 147.918 251.63 147.484C251.535 147.042 251.528 146.101 252.262 145.224L259.912 151.659C263.3 147.612 260.972 142.665 258.42 140.517L251.999 148.188Z" fill="#3A464E" mask="url(#path-64-inside-5_120_15067)"/>
<mask id="path-66-inside-6_120_15067" fill="white">
<ellipse cx="3.29883" cy="2.56363" rx="3.29883" ry="2.56363" transform="matrix(0.765017 0.643505 -0.642075 0.767063 250.003 148.76)"/>
</mask>
<path d="M249.579 151.755C250.313 150.878 251.238 150.722 251.689 150.739C252.131 150.755 252.362 150.911 252.445 150.981L246.024 158.651C248.577 160.799 253.841 162.238 257.229 158.19L249.579 151.755ZM252.445 150.981C252.528 151.051 252.721 151.251 252.814 151.685C252.909 152.127 252.916 153.068 252.182 153.944L244.532 147.509C241.143 151.557 243.471 156.504 246.024 158.651L252.445 150.981ZM252.182 153.944C251.448 154.821 250.523 154.978 250.072 154.961C249.63 154.944 249.399 154.788 249.316 154.718L255.737 147.048C253.184 144.901 247.92 143.461 244.532 147.509L252.182 153.944ZM249.316 154.718C249.233 154.649 249.04 154.448 248.947 154.014C248.852 153.572 248.845 152.632 249.579 151.755L257.229 158.19C260.618 154.142 258.29 149.195 255.737 147.048L249.316 154.718Z" fill="#3A464E" mask="url(#path-66-inside-6_120_15067)"/>
<line x1="58.4932" y1="175.605" x2="61.2119" y2="191.918" stroke="#C4C4C4"/>
<ellipse cx="41.0752" cy="116.844" rx="14.4084" ry="16.2288" transform="rotate(-10 41.0752 116.844)" fill="#9C694A"/>
<ellipse cx="55.242" cy="114.346" rx="14.4084" ry="16.2288" transform="rotate(-10 55.242 114.346)" fill="#9C694A"/>
<rect x="36.0007" y="100.679" width="18.9038" height="10.8019" rx="5.40096" transform="rotate(-10 36.0007 100.679)" fill="#9C694A"/>
<rect x="45.1638" y="167.248" width="23.8372" height="10.8019" transform="rotate(-10 45.1638 167.248)" fill="#9C694A"/>
<rect x="43.3416" y="142.31" width="18.9038" height="10.8019" transform="rotate(-10 43.3416 142.31)" fill="#9C694A"/>
<rect x="39.8608" y="122.569" width="18.9038" height="10.8019" transform="rotate(-10 39.8608 122.569)" fill="#9C694A"/>
<ellipse cx="45.0909" cy="159.931" rx="15.6763" ry="17.657" transform="rotate(-10 45.0909 159.931)" fill="#9C694A"/>
<ellipse cx="66.1595" cy="156.216" rx="15.6763" ry="17.657" transform="rotate(-10 66.1595 156.216)" fill="#9C694A"/>
<ellipse cx="34.776" cy="55.6442" rx="0.923983" ry="0.897584" transform="rotate(-10 34.776 55.6442)" fill="#9C694A"/>
<circle cx="34.0921" cy="59.062" r="0.923983" transform="rotate(-10 34.0921 59.062)" fill="#9C694A"/>
<ellipse cx="0.922535" cy="0.925133" rx="0.922535" ry="0.925133" transform="matrix(0.984602 0.174812 -0.172487 0.985012 43.1863 53.8923)" fill="#9C694A"/>
<ellipse cx="0.922535" cy="0.925133" rx="0.922535" ry="0.925133" transform="matrix(0.984602 0.174812 -0.172487 0.985012 42.6592 57.2747)" fill="#9C694A"/>
<path fill-rule="evenodd" clip-rule="evenodd" d="M31.9004 128.138L67.1357 121.925L67.5841 124.468C65.1331 126.327 63.7741 129.028 64.2524 131.741C64.7308 134.454 66.9317 136.527 69.8708 137.436L70.8421 142.945L35.6068 149.158L34.6311 143.625C37.055 141.766 38.3954 139.081 37.9198 136.384C37.4443 133.687 35.2663 131.622 32.353 130.705L31.9004 128.138Z" fill="#9C694A"/>
<ellipse cx="3.06743" cy="5.52767" rx="3.06743" ry="5.52767" transform="matrix(0.984602 0.174812 -0.172487 0.985012 36.9265 51.5654)" fill="#9C694A"/>
<rect x="34.9424" y="60.3865" width="7.02227" height="74.605" rx="2" transform="rotate(-10 34.9424 60.3865)" fill="black"/>
<line x1="36.6093" y1="60.7357" x2="52.4066" y2="150.326" stroke="white" stroke-width="0.1"/>
<line x1="37.7533" y1="60.5343" x2="53.5506" y2="150.125" stroke="white" stroke-width="0.1"/>
<line x1="39.0011" y1="60.3138" x2="54.7984" y2="149.904" stroke="white" stroke-width="0.1"/>
<line x1="40.3534" y1="60.0758" x2="56.1507" y2="149.666" stroke="white" stroke-width="0.1"/>
<path d="M59.9376 177.002C60.0048 178.185 58.323 178.482 57.9816 177.347L50.0649 151.039C49.8924 150.465 50.2591 149.87 50.8489 149.766L57.2066 148.645C57.7964 148.541 58.3447 148.975 58.3787 149.573L59.9376 177.002Z" fill="black"/>
<path d="M61.8948 139.47C62.3356 141.375 64.3118 142.969 65.5281 143.394C65.5949 143.418 65.7415 143.426 65.8333 143.345C65.9262 143.263 65.8886 143.182 65.7869 143.123C65.4539 142.932 64.5639 142.528 63.8364 141.47C62.8913 140.096 62.9477 135.518 62.0012 133.733C61.277 132.367 60.9022 131.729 58.9318 130.575L58.4231 130.695C59.405 131.13 60.4348 132.016 60.8402 133.295C61.5168 135.429 61.3486 137.11 61.8948 139.47Z" fill="#C4C4C4"/>
<path d="M41.8502 138.211C41.613 136.27 42.9246 134.095 43.9222 133.28C43.977 133.235 44.1121 133.178 44.226 133.222C44.3413 133.267 44.3337 133.357 44.2581 133.446C44.0106 133.74 43.3126 134.424 42.9907 135.667C42.5724 137.281 44.1911 141.564 43.9124 143.565C43.6992 145.097 43.5652 145.824 42.1082 147.583L41.5892 147.644C42.363 146.899 43.0275 145.714 42.9712 144.374C42.8772 142.137 42.1441 140.615 41.8502 138.211Z" fill="#C4C4C4"/>
<rect x="48.7678" y="142.443" width="8.23665" height="1.42557" rx="0.712787" transform="rotate(-10 48.7678 142.443)" fill="#CB9472"/>
</svg>
