<svg width="108" height="123" viewBox="0 0 108 123" fill="none" xmlns="http://www.w3.org/2000/svg">
<rect x="2.83984" y="55.9807" width="102.32" height="15.1723" fill="#9C694A"/>
<rect x="37.2959" y="44.4705" width="33.4837" height="9.71626" fill="#9C694A"/>
<rect x="0.74707" y="71.1528" width="106.505" height="6.87612" fill="#9C694A"/>
<rect x="34.3057" y="104.039" width="46.5633" height="2.7654" fill="#9C694A"/>
<rect x="32.2881" y="95.9668" width="50.5246" height="8.07197" rx="4.03599" fill="#358B39"/>
<rect x="97.6113" y="106.057" width="1.86851" height="16.4429" fill="#9C694A"/>
<rect x="7.54883" y="105.533" width="1.79377" height="16.2934" fill="#9C694A"/>
<rect x="8.25866" y="70.3683" width="2.24221" height="0.523183" fill="white" stroke="black" stroke-width="0.523183"/>
<rect x="11.0243" y="70.3683" width="2.31696" height="0.523183" fill="white" stroke="black" stroke-width="0.523183"/>
<rect x="13.8641" y="70.3683" width="2.24221" height="0.523183" fill="white" stroke="black" stroke-width="0.523183"/>
<rect x="16.6298" y="70.3683" width="2.31696" height="0.523183" fill="white" stroke="black" stroke-width="0.523183"/>
<rect x="19.4696" y="70.3683" width="2.24221" height="0.523183" fill="white" stroke="black" stroke-width="0.523183"/>
<rect x="22.2352" y="70.3683" width="2.31696" height="0.523183" fill="white" stroke="black" stroke-width="0.523183"/>
<rect x="25.0751" y="70.3683" width="2.24221" height="0.523183" fill="white" stroke="black" stroke-width="0.523183"/>
<rect x="27.8407" y="70.3683" width="2.31696" height="0.523183" fill="white" stroke="black" stroke-width="0.523183"/>
<rect x="53.1034" y="70.3683" width="2.24221" height="0.523183" fill="white" stroke="black" stroke-width="0.523183"/>
<rect x="55.869" y="70.3683" width="2.31696" height="0.523183" fill="white" stroke="black" stroke-width="0.523183"/>
<rect x="58.7089" y="70.3683" width="2.24221" height="0.523183" fill="white" stroke="black" stroke-width="0.523183"/>
<rect x="61.4745" y="70.3683" width="2.31696" height="0.523183" fill="white" stroke="black" stroke-width="0.523183"/>
<rect x="64.3143" y="70.3683" width="2.24221" height="0.523183" fill="white" stroke="black" stroke-width="0.523183"/>
<rect x="67.08" y="70.3683" width="2.31696" height="0.523183" fill="white" stroke="black" stroke-width="0.523183"/>
<rect x="69.9198" y="70.3683" width="2.24221" height="0.523183" fill="white" stroke="black" stroke-width="0.523183"/>
<rect x="72.6854" y="70.3683" width="2.31696" height="0.523183" fill="white" stroke="black" stroke-width="0.523183"/>
<rect x="75.5253" y="70.3683" width="2.24221" height="0.523183" fill="white" stroke="black" stroke-width="0.523183"/>
<rect x="78.2909" y="70.3683" width="2.31696" height="0.523183" fill="white" stroke="black" stroke-width="0.523183"/>
<rect x="81.1307" y="70.3683" width="2.24221" height="0.523183" fill="white" stroke="black" stroke-width="0.523183"/>
<rect x="83.8964" y="70.3683" width="2.31696" height="0.523183" fill="white" stroke="black" stroke-width="0.523183"/>
<rect x="86.7362" y="70.3683" width="2.24221" height="0.523183" fill="white" stroke="black" stroke-width="0.523183"/>
<rect x="89.5018" y="70.3683" width="2.31696" height="0.523183" fill="white" stroke="black" stroke-width="0.523183"/>
<rect x="92.3417" y="70.3683" width="2.24221" height="0.523183" fill="white" stroke="black" stroke-width="0.523183"/>
<rect x="95.1073" y="70.3683" width="2.31696" height="0.523183" fill="white" stroke="black" stroke-width="0.523183"/>
<rect x="97.9471" y="70.3683" width="2.24221" height="0.523183" fill="white" stroke="black" stroke-width="0.523183"/>
<rect x="30.6805" y="70.3683" width="2.24221" height="0.523183" fill="white" stroke="black" stroke-width="0.523183"/>
<rect x="33.4462" y="70.3683" width="2.31696" height="0.523183" fill="white" stroke="black" stroke-width="0.523183"/>
<rect x="36.287" y="70.3683" width="2.24221" height="0.523183" fill="white" stroke="black" stroke-width="0.523183"/>
<rect x="39.0516" y="70.3683" width="2.31696" height="0.523183" fill="white" stroke="black" stroke-width="0.523183"/>
<rect x="41.8925" y="70.3683" width="2.24221" height="0.523183" fill="white" stroke="black" stroke-width="0.523183"/>
<rect x="44.6571" y="70.3683" width="2.31696" height="0.523183" fill="white" stroke="black" stroke-width="0.523183"/>
<rect x="47.4979" y="70.3683" width="2.24221" height="0.523183" fill="white" stroke="black" stroke-width="0.523183"/>
<rect x="50.2626" y="70.3683" width="2.31696" height="0.523183" fill="white" stroke="black" stroke-width="0.523183"/>
<rect y="54.1868" width="108" height="1.79377" fill="#9C694A"/>
<rect y="54" width="108" height="1.77049" transform="rotate(-30 0 54)" fill="#9C694A"/>
<rect width="50.5843" height="0.368852" transform="matrix(0.5 0.866025 0.866025 -0.5 76.3525 10.5862)" fill="#9C694A"/>
<path d="M98.4703 121.977L95.2663 77.4686H101.674L98.4703 121.977Z" fill="#9C694A"/>
<rect x="75.4883" y="106.804" width="1.79377" height="15.3965" fill="#9C694A"/>
<path d="M76.3476 121.827L73.7908 106.356H78.9043L76.3476 121.827Z" fill="#9C694A"/>
<rect x="37.5195" y="106.804" width="1.86851" height="15.3965" fill="#9C694A"/>
<path d="M38.454 121.827L35.8973 106.356H41.0107L38.454 121.827Z" fill="#9C694A"/>
<path d="M8.48296 121.977L5.27897 77.4686H11.687L8.48296 121.977Z" fill="#9C694A"/>
<path d="M49.4422 64.2679C49.1222 64.2679 48.8656 64.1863 48.6722 64.0229C48.4789 63.8596 48.3822 63.6163 48.3822 63.2929C48.3822 63.1396 48.4122 62.9979 48.4722 62.8679C48.5356 62.7346 48.6439 62.6546 48.7972 62.6279C48.7806 62.6779 48.7722 62.7346 48.7722 62.7979C48.7722 62.9013 48.7856 63.0179 48.8122 63.1479C48.8422 63.2746 48.8722 63.3846 48.9022 63.4779C48.9489 63.6113 49.0122 63.7263 49.0922 63.8229C49.1756 63.9163 49.2639 63.9896 49.3572 64.0429C49.4539 64.0929 49.5406 64.1179 49.6172 64.1179C49.6906 64.1179 49.7489 64.0963 49.7922 64.0529C49.8389 64.0063 49.8622 63.9313 49.8622 63.8279C49.8622 63.6979 49.8272 63.5713 49.7572 63.4479C49.6872 63.3213 49.6039 63.1946 49.5072 63.0679C49.4106 62.9413 49.3189 62.8146 49.2322 62.6879C49.1656 62.5846 49.1089 62.4796 49.0622 62.3729C49.0156 62.2629 48.9922 62.1513 48.9922 62.0379C48.9922 61.8579 49.0322 61.7063 49.1122 61.5829C49.1922 61.4563 49.2989 61.3613 49.4322 61.2979C49.5689 61.2313 49.7206 61.1979 49.8872 61.1979C49.9639 61.1979 50.0489 61.2029 50.1422 61.2129C50.2356 61.2229 50.3239 61.2446 50.4072 61.2779L50.4822 61.3079C50.5489 61.2113 50.6239 61.1429 50.7072 61.1029C50.7906 61.0629 50.8639 61.0429 50.9272 61.0429C50.9772 61.0429 51.0172 61.0529 51.0472 61.0729C51.0806 61.0896 51.0972 61.1129 51.0972 61.1429C51.0972 61.1729 51.0806 61.2029 51.0472 61.2329C50.9172 61.3563 50.8156 61.4729 50.7422 61.5829C50.6689 61.6896 50.5989 61.8129 50.5322 61.9529C50.4689 62.0896 50.4322 62.2279 50.4222 62.3679C50.4022 62.3746 50.3889 62.3779 50.3822 62.3779C50.3456 62.3779 50.3189 62.3529 50.3022 62.3029C50.2856 62.2496 50.2772 62.1829 50.2772 62.1029C50.2772 62.0096 50.2872 61.9079 50.3072 61.7979C50.3272 61.6846 50.3539 61.5846 50.3872 61.4979C50.3672 61.4779 50.3406 61.4613 50.3072 61.4479C50.2739 61.4313 50.2356 61.4229 50.1922 61.4229C50.1122 61.4229 50.0389 61.4546 49.9722 61.5179C49.9056 61.5813 49.8506 61.6596 49.8072 61.7529C49.7672 61.8429 49.7472 61.9313 49.7472 62.0179C49.7472 62.1313 49.7722 62.2446 49.8222 62.3579C49.8756 62.4713 49.9389 62.5829 50.0122 62.6929C50.0889 62.8029 50.1606 62.9129 50.2272 63.0229C50.2872 63.1263 50.3306 63.2246 50.3572 63.3179C50.3872 63.4079 50.4022 63.4929 50.4022 63.5729C50.4022 63.7863 50.3139 63.9563 50.1372 64.0829C49.9639 64.2063 49.7322 64.2679 49.4422 64.2679ZM51.1341 64.1879C51.0141 64.1879 50.9058 64.1546 50.8091 64.0879C50.7125 64.0179 50.6641 63.9063 50.6641 63.7529C50.6641 63.6329 50.6875 63.4863 50.7341 63.3129C50.7808 63.1396 50.8425 62.9629 50.9191 62.7829C50.9958 62.5996 51.0791 62.4346 51.1691 62.2879H50.9541C50.9341 62.2879 50.9241 62.2796 50.9241 62.2629C50.9241 62.2496 50.9325 62.2346 50.9491 62.2179C50.9658 62.1979 50.9858 62.1846 51.0091 62.1779C51.0625 62.1613 51.1308 62.1313 51.2141 62.0879C51.3008 62.0413 51.3908 61.9879 51.4841 61.9279C51.5775 61.8679 51.6658 61.8079 51.7491 61.7479C51.8325 61.6879 51.8991 61.6363 51.9491 61.5929C51.9791 61.5663 52.0108 61.5479 52.0441 61.5379C52.0808 61.5279 52.1158 61.5229 52.1491 61.5229C52.2058 61.5229 52.2491 61.5329 52.2791 61.5529C52.3091 61.5729 52.3091 61.5929 52.2791 61.6129C52.2525 61.6296 52.2158 61.6713 52.1691 61.7379C52.1225 61.8046 52.0741 61.8779 52.0241 61.9579C51.9775 62.0379 51.9358 62.1096 51.8991 62.1729H52.2791C52.2858 62.1729 52.2891 62.1779 52.2891 62.1879C52.2891 62.2046 52.2825 62.2263 52.2691 62.2529C52.2558 62.2763 52.2425 62.2879 52.2291 62.2879H51.8341C51.7675 62.4046 51.6941 62.5379 51.6141 62.6879C51.5341 62.8379 51.4575 62.9913 51.3841 63.1479C51.3141 63.3013 51.2558 63.4446 51.2091 63.5779C51.1625 63.7079 51.1391 63.8113 51.1391 63.8879C51.1391 63.9713 51.1775 64.0129 51.2541 64.0129C51.3341 64.0129 51.4241 63.9746 51.5241 63.8979C51.6075 63.8279 51.6858 63.7413 51.7591 63.6379C51.8291 63.5413 51.8908 63.4413 51.9441 63.3379C52.0008 63.2346 52.0475 63.1463 52.0841 63.0729C52.0975 63.0496 52.1158 63.0379 52.1391 63.0379C52.1625 63.0379 52.1808 63.0479 52.1941 63.0679C52.2108 63.0846 52.2125 63.1063 52.1991 63.1329C52.1491 63.2329 52.0858 63.3496 52.0091 63.4829C51.9325 63.6163 51.8508 63.7379 51.7641 63.8479C51.6941 63.9346 51.6258 64.0013 51.5591 64.0479C51.4958 64.0913 51.4275 64.1246 51.3541 64.1479C51.2841 64.1746 51.2108 64.1879 51.1341 64.1879ZM52.6587 64.2229C52.4153 64.2229 52.2387 64.1679 52.1287 64.0579C52.022 63.9479 51.9687 63.8029 51.9687 63.6229C51.9687 63.4863 51.997 63.3363 52.0537 63.1729C52.097 63.0396 52.1553 62.9046 52.2287 62.7679C52.302 62.6279 52.387 62.4996 52.4837 62.3829C52.5803 62.2629 52.687 62.1679 52.8037 62.0979C52.9203 62.0246 53.0437 61.9879 53.1737 61.9879C53.3403 61.9879 53.4753 62.0146 53.5787 62.0679C53.6853 62.1179 53.7387 62.2013 53.7387 62.3179C53.7387 62.4046 53.7037 62.5129 53.6337 62.6429C53.5403 62.8229 53.4037 62.9713 53.2237 63.0879C53.0437 63.2046 52.842 63.2713 52.6187 63.2879C52.5687 63.4246 52.5387 63.5363 52.5287 63.6229C52.5253 63.6396 52.5237 63.6563 52.5237 63.6729C52.5237 63.6863 52.5237 63.7013 52.5237 63.7179C52.5237 63.8279 52.5487 63.9079 52.5987 63.9579C52.6487 64.0046 52.7103 64.0279 52.7837 64.0279C52.9203 64.0279 53.0403 63.9929 53.1437 63.9229C53.247 63.8529 53.337 63.7646 53.4137 63.6579C53.4937 63.5513 53.562 63.4446 53.6187 63.3379C53.652 63.2779 53.6803 63.2229 53.7037 63.1729C53.727 63.1196 53.7453 63.0813 53.7587 63.0579C53.7753 63.0313 53.7937 63.0179 53.8137 63.0179C53.8337 63.0179 53.852 63.0296 53.8687 63.0529C53.8853 63.0729 53.887 63.0963 53.8737 63.1229C53.8303 63.2096 53.7703 63.3246 53.6937 63.4679C53.617 63.6113 53.5303 63.7379 53.4337 63.8479C53.327 63.9746 53.212 64.0696 53.0887 64.1329C52.9687 64.1929 52.8253 64.2229 52.6587 64.2229ZM52.6837 63.1429C52.8337 63.0863 52.9653 62.9846 53.0787 62.8379C53.1953 62.6913 53.2737 62.5296 53.3137 62.3529C53.317 62.3363 53.3187 62.3213 53.3187 62.3079C53.322 62.2946 53.3237 62.2813 53.3237 62.2679C53.3237 62.2013 53.3037 62.1679 53.2637 62.1679C53.2303 62.1679 53.1953 62.1913 53.1587 62.2379C53.1053 62.3013 53.0487 62.3879 52.9887 62.4979C52.9287 62.6046 52.8753 62.7096 52.8287 62.8129C52.782 62.9163 52.747 62.9946 52.7237 63.0479L52.6837 63.1429ZM54.0736 64.1879C53.9536 64.1879 53.8453 64.1546 53.7486 64.0879C53.6519 64.0179 53.6036 63.9046 53.6036 63.7479C53.6036 63.6446 53.6203 63.5246 53.6536 63.3879C53.6903 63.2513 53.7353 63.1113 53.7886 62.9679C53.8419 62.8213 53.8969 62.6863 53.9536 62.5629C54.0136 62.4363 54.0669 62.3329 54.1136 62.2529C54.1869 62.1363 54.2686 62.0646 54.3586 62.0379C54.4519 62.0113 54.5653 61.9979 54.6986 61.9979C54.7953 61.9979 54.8753 62.0096 54.9386 62.0329C55.0019 62.0529 55.0119 62.0763 54.9686 62.1029C54.9053 62.1463 54.8236 62.2429 54.7236 62.3929C54.6236 62.5429 54.5269 62.7113 54.4336 62.8979C54.4069 62.9513 54.3736 63.0229 54.3336 63.1129C54.2936 63.1996 54.2536 63.2929 54.2136 63.3929C54.1769 63.4896 54.1453 63.5829 54.1186 63.6729C54.0919 63.7596 54.0786 63.8313 54.0786 63.8879C54.0786 63.9713 54.1169 64.0129 54.1936 64.0129C54.2736 64.0129 54.3636 63.9746 54.4636 63.8979C54.5103 63.8613 54.5536 63.8196 54.5936 63.7729C54.6336 63.7263 54.6703 63.6796 54.7036 63.6329C54.7703 63.5429 54.8303 63.4463 54.8836 63.3429C54.9403 63.2363 54.9919 63.1363 55.0386 63.0429C55.0486 63.0229 55.0619 63.0129 55.0786 63.0129C55.1019 63.0129 55.1219 63.0246 55.1386 63.0479C55.1553 63.0713 55.1569 63.0963 55.1436 63.1229C55.0936 63.2229 55.0319 63.3413 54.9586 63.4779C54.8853 63.6113 54.8003 63.7346 54.7036 63.8479C54.6203 63.9446 54.5253 64.0263 54.4186 64.0929C54.3153 64.1563 54.2003 64.1879 54.0736 64.1879ZM54.7886 61.7479C54.7319 61.7479 54.6869 61.7296 54.6536 61.6929C54.6203 61.6529 54.6036 61.6013 54.6036 61.5379C54.6036 61.4613 54.6236 61.3913 54.6636 61.3279C54.7036 61.2646 54.7536 61.2129 54.8136 61.1729C54.8736 61.1329 54.9353 61.1129 54.9986 61.1129C55.0553 61.1129 55.1003 61.1329 55.1336 61.1729C55.1669 61.2096 55.1836 61.2563 55.1836 61.3129C55.1836 61.3863 55.1636 61.4563 55.1236 61.5229C55.0836 61.5896 55.0336 61.6446 54.9736 61.6879C54.9136 61.7279 54.8519 61.7479 54.7886 61.7479ZM56.1981 64.1879C56.0281 64.1879 55.9131 64.1413 55.8531 64.0479C55.7931 63.9546 55.7631 63.8463 55.7631 63.7229C55.7631 63.6329 55.7731 63.5429 55.7931 63.4529C55.8131 63.3629 55.8348 63.2829 55.8581 63.2129C55.8815 63.1429 55.8981 63.0946 55.9081 63.0679C55.9481 62.9479 55.9898 62.8329 56.0331 62.7229C56.0798 62.6096 56.1148 62.5313 56.1381 62.4879C56.1281 62.5046 56.0915 62.5529 56.0281 62.6329C55.9648 62.7129 55.8898 62.8129 55.8031 62.9329C55.7198 63.0496 55.6365 63.1746 55.5531 63.3079C55.4698 63.4379 55.3998 63.5646 55.3431 63.6879C55.2898 63.8079 55.2631 63.9113 55.2631 63.9979C55.2631 64.0579 55.2765 64.1013 55.3031 64.1279C55.3131 64.1379 55.3181 64.1463 55.3181 64.1529C55.3181 64.1696 55.2998 64.1746 55.2631 64.1679C55.1865 64.1546 55.1115 64.1413 55.0381 64.1279C54.9648 64.1113 54.9031 64.0796 54.8531 64.0329C54.8065 63.9829 54.7831 63.9013 54.7831 63.7879C54.7831 63.6979 54.8065 63.5896 54.8531 63.4629C54.8998 63.3329 54.9548 63.1996 55.0181 63.0629C55.0815 62.9263 55.1365 62.7996 55.1831 62.6829C55.1931 62.6563 55.2098 62.6163 55.2331 62.5629C55.2565 62.5063 55.2798 62.4479 55.3031 62.3879C55.3298 62.3246 55.3498 62.2696 55.3631 62.2229C55.3765 62.1729 55.3798 62.1396 55.3731 62.1229C55.3665 62.1096 55.3631 62.0996 55.3631 62.0929C55.3631 62.0529 55.3898 62.0329 55.4431 62.0329C55.4965 62.0329 55.5498 62.0413 55.6031 62.0579C55.6598 62.0713 55.7098 62.0946 55.7531 62.1279C55.7998 62.1613 55.8365 62.2013 55.8631 62.2479C55.8898 62.2946 55.9031 62.3463 55.9031 62.4029C55.9031 62.4396 55.8948 62.4829 55.8781 62.5329C55.8715 62.5563 55.8565 62.5879 55.8331 62.6279C55.8131 62.6646 55.7915 62.7046 55.7681 62.7479C55.7448 62.7913 55.7198 62.8363 55.6931 62.8829C55.6698 62.9296 55.6615 62.9546 55.6681 62.9579C55.7515 62.8113 55.8415 62.6746 55.9381 62.5479C56.0381 62.4179 56.1281 62.3063 56.2081 62.2129C56.2915 62.1196 56.3465 62.0513 56.3731 62.0079C56.3998 61.9879 56.4431 61.9779 56.5031 61.9779C56.5731 61.9779 56.6448 61.9996 56.7181 62.0429C56.7915 62.0863 56.8281 62.1646 56.8281 62.2779C56.8281 62.3713 56.7948 62.4846 56.7281 62.6179C56.5848 62.8913 56.4748 63.1379 56.3981 63.3579C56.3215 63.5746 56.2831 63.7346 56.2831 63.8379C56.2831 63.9113 56.3031 63.9479 56.3431 63.9479C56.3898 63.9479 56.4431 63.9179 56.5031 63.8579C56.5631 63.7979 56.6198 63.7263 56.6731 63.6429C56.7465 63.5363 56.8131 63.4229 56.8731 63.3029C56.9365 63.1829 56.9798 63.0996 57.0031 63.0529C57.0131 63.0329 57.0281 63.0229 57.0481 63.0229C57.0681 63.0229 57.0865 63.0346 57.1031 63.0579C57.1231 63.0779 57.1265 63.1013 57.1131 63.1279C57.0898 63.1746 57.0548 63.2396 57.0081 63.3229C56.9648 63.4063 56.9148 63.4963 56.8581 63.5929C56.8015 63.6863 56.7398 63.7763 56.6731 63.8629C56.5998 63.9629 56.5265 64.0429 56.4531 64.1029C56.3798 64.1596 56.2948 64.1879 56.1981 64.1879ZM57.1609 64.1729C57.0309 64.1729 56.9392 64.1363 56.8859 64.0629C56.8359 63.9896 56.8109 63.9013 56.8109 63.7979C56.8109 63.6446 56.8342 63.4979 56.8809 63.3579C56.9276 63.2146 56.9826 63.0713 57.0459 62.9279C57.1126 62.7846 57.1742 62.6396 57.2309 62.4929C57.2576 62.4163 57.2809 62.3429 57.3009 62.2729C57.3209 62.1996 57.3309 62.1413 57.3309 62.0979C57.3309 62.0646 57.3259 62.0413 57.3159 62.0279V62.0129C57.3159 61.9963 57.3276 61.9896 57.3509 61.9929C57.3776 61.9996 57.4026 62.0063 57.4259 62.0129C57.4526 62.0163 57.4792 62.0229 57.5059 62.0329C57.6359 62.0763 57.7242 62.1346 57.7709 62.2079C57.8209 62.2779 57.8459 62.3513 57.8459 62.4279C57.8459 62.4413 57.8442 62.4546 57.8409 62.4679C57.8409 62.4813 57.8392 62.4946 57.8359 62.5079C57.8292 62.5379 57.8076 62.5996 57.7709 62.6929C57.7342 62.7829 57.6926 62.8796 57.6459 62.9829C57.5926 63.1063 57.5376 63.2279 57.4809 63.3479C57.4242 63.4646 57.3726 63.5946 57.3259 63.7379C57.3226 63.7479 57.3209 63.7629 57.3209 63.7829C57.3209 63.8296 57.3409 63.8529 57.3809 63.8529C57.4176 63.8529 57.4526 63.8363 57.4859 63.8029C57.5359 63.7529 57.5959 63.6763 57.6659 63.5729C57.7359 63.4663 57.8226 63.3146 57.9259 63.1179C57.9926 62.9946 58.0442 62.8829 58.0809 62.7829C58.1209 62.6796 58.1542 62.5779 58.1809 62.4779C58.1909 62.4313 58.1992 62.3863 58.2059 62.3429C58.2126 62.2963 58.2159 62.2563 58.2159 62.2229C58.2159 62.1829 58.2109 62.1563 58.2009 62.1429C58.1942 62.1296 58.1926 62.1179 58.1959 62.1079C58.1992 62.0979 58.2092 62.0946 58.2259 62.0979C58.3126 62.1046 58.3959 62.1263 58.4759 62.1629C58.5592 62.1963 58.6276 62.2429 58.6809 62.3029C58.7342 62.3629 58.7609 62.4379 58.7609 62.5279C58.7609 62.5613 58.7559 62.5963 58.7459 62.6329C58.7359 62.6696 58.7142 62.7329 58.6809 62.8229C58.6476 62.9129 58.6076 63.0146 58.5609 63.1279C58.5176 63.2413 58.4759 63.3529 58.4359 63.4629C58.3959 63.5729 58.3659 63.6679 58.3459 63.7479C58.3426 63.7613 58.3392 63.7729 58.3359 63.7829C58.3359 63.7896 58.3359 63.7963 58.3359 63.8029C58.3359 63.8429 58.3492 63.8629 58.3759 63.8629C58.3959 63.8629 58.4242 63.8479 58.4609 63.8179C58.5109 63.7713 58.5742 63.6929 58.6509 63.5829C58.7309 63.4696 58.8226 63.3146 58.9259 63.1179C59.0026 62.9746 59.0626 62.8329 59.1059 62.6929C59.1526 62.5529 59.1759 62.4296 59.1759 62.3229C59.1759 62.2029 59.1442 62.1129 59.0809 62.0529C59.0676 62.0396 59.0609 62.0329 59.0609 62.0329C59.0609 62.0263 59.0809 62.0213 59.1209 62.0179C59.1376 62.0179 59.1542 62.0179 59.1709 62.0179C59.1909 62.0146 59.2076 62.0129 59.2209 62.0129C59.3976 62.0129 59.5259 62.0429 59.6059 62.1029C59.6892 62.1596 59.7309 62.2279 59.7309 62.3079C59.7309 62.3246 59.7276 62.3463 59.7209 62.3729C59.7009 62.4596 59.6609 62.5663 59.6009 62.6929C59.5442 62.8163 59.4759 62.9463 59.3959 63.0829C59.3392 63.1796 59.2992 63.2646 59.2759 63.3379C59.2559 63.4079 59.2459 63.4746 59.2459 63.5379C59.2459 63.6646 59.2809 63.7279 59.3509 63.7279C59.4076 63.7279 59.4642 63.6913 59.5209 63.6179C59.5776 63.5513 59.6342 63.4646 59.6909 63.3579C59.7509 63.2513 59.8009 63.1563 59.8409 63.0729C59.8509 63.0496 59.8692 63.0379 59.8959 63.0379C59.9159 63.0379 59.9342 63.0479 59.9509 63.0679C59.9676 63.0846 59.9692 63.1063 59.9559 63.1329C59.9392 63.1663 59.9209 63.2029 59.9009 63.2429C59.8842 63.2796 59.8642 63.3179 59.8409 63.3579C59.8076 63.4179 59.7676 63.4879 59.7209 63.5679C59.6742 63.6479 59.6176 63.7196 59.5509 63.7829C59.4876 63.8429 59.4109 63.8729 59.3209 63.8729C59.2476 63.8729 59.1926 63.8429 59.1559 63.7829C59.1192 63.7229 59.1009 63.6563 59.1009 63.5829C59.1009 63.5696 59.1009 63.5563 59.1009 63.5429C59.1009 63.5296 59.1026 63.5163 59.1059 63.5029C59.0192 63.6229 58.9209 63.7346 58.8109 63.8379C58.7042 63.9379 58.5942 64.0196 58.4809 64.0829C58.3709 64.1429 58.2642 64.1729 58.1609 64.1729C58.0409 64.1729 57.9542 64.1346 57.9009 64.0579C57.8509 63.9779 57.8259 63.8813 57.8259 63.7679C57.8259 63.7379 57.8276 63.7079 57.8309 63.6779C57.8376 63.6446 57.8426 63.6129 57.8459 63.5829C57.7326 63.7529 57.6192 63.8946 57.5059 64.0079C57.3926 64.1179 57.2776 64.1729 57.1609 64.1729ZM60.4175 64.2229C60.1741 64.2229 59.9975 64.1679 59.8875 64.0579C59.7808 63.9479 59.7275 63.8029 59.7275 63.6229C59.7275 63.4863 59.7558 63.3363 59.8125 63.1729C59.8558 63.0396 59.9141 62.9046 59.9875 62.7679C60.0608 62.6279 60.1458 62.4996 60.2425 62.3829C60.3391 62.2629 60.4458 62.1679 60.5625 62.0979C60.6791 62.0246 60.8025 61.9879 60.9325 61.9879C61.0991 61.9879 61.2341 62.0146 61.3375 62.0679C61.4441 62.1179 61.4975 62.2013 61.4975 62.3179C61.4975 62.4046 61.4625 62.5129 61.3925 62.6429C61.2991 62.8229 61.1625 62.9713 60.9825 63.0879C60.8025 63.2046 60.6008 63.2713 60.3775 63.2879C60.3275 63.4246 60.2975 63.5363 60.2875 63.6229C60.2841 63.6396 60.2825 63.6563 60.2825 63.6729C60.2825 63.6863 60.2825 63.7013 60.2825 63.7179C60.2825 63.8279 60.3075 63.9079 60.3575 63.9579C60.4075 64.0046 60.4691 64.0279 60.5425 64.0279C60.6791 64.0279 60.7991 63.9929 60.9025 63.9229C61.0058 63.8529 61.0958 63.7646 61.1725 63.6579C61.2525 63.5513 61.3208 63.4446 61.3775 63.3379C61.4108 63.2779 61.4391 63.2229 61.4625 63.1729C61.4858 63.1196 61.5041 63.0813 61.5175 63.0579C61.5341 63.0313 61.5525 63.0179 61.5725 63.0179C61.5925 63.0179 61.6108 63.0296 61.6275 63.0529C61.6441 63.0729 61.6458 63.0963 61.6325 63.1229C61.5891 63.2096 61.5291 63.3246 61.4525 63.4679C61.3758 63.6113 61.2891 63.7379 61.1925 63.8479C61.0858 63.9746 60.9708 64.0696 60.8475 64.1329C60.7275 64.1929 60.5841 64.2229 60.4175 64.2229ZM60.4425 63.1429C60.5925 63.0863 60.7241 62.9846 60.8375 62.8379C60.9541 62.6913 61.0325 62.5296 61.0725 62.3529C61.0758 62.3363 61.0775 62.3213 61.0775 62.3079C61.0808 62.2946 61.0825 62.2813 61.0825 62.2679C61.0825 62.2013 61.0625 62.1679 61.0225 62.1679C60.9891 62.1679 60.9541 62.1913 60.9175 62.2379C60.8641 62.3013 60.8075 62.3879 60.7475 62.4979C60.6875 62.6046 60.6341 62.7096 60.5875 62.8129C60.5408 62.9163 60.5058 62.9946 60.4825 63.0479L60.4425 63.1429ZM61.6624 65.1429C61.499 65.1463 61.3707 65.1246 61.2774 65.0779C61.1874 65.0313 61.1424 64.9579 61.1424 64.8579C61.1424 64.7713 61.174 64.6946 61.2374 64.6279C61.304 64.5646 61.3874 64.5079 61.4874 64.4579C61.5907 64.4113 61.6974 64.3713 61.8074 64.3379C61.9174 64.3046 62.019 64.2763 62.1124 64.2529L62.2824 63.7579C62.2657 63.7979 62.2357 63.8513 62.1924 63.9179C62.1524 63.9813 62.1007 64.0396 62.0374 64.0929C61.9774 64.1463 61.9057 64.1729 61.8224 64.1729C61.6424 64.1729 61.5174 64.1296 61.4474 64.0429C61.3807 63.9563 61.3474 63.8513 61.3474 63.7279C61.3474 63.6113 61.3657 63.4896 61.4024 63.3629C61.4424 63.2329 61.4874 63.1129 61.5374 63.0029C61.5874 62.8896 61.6274 62.8013 61.6574 62.7379C61.7574 62.5313 61.8557 62.3779 61.9524 62.2779C62.0524 62.1746 62.1557 62.1063 62.2624 62.0729C62.3724 62.0396 62.4874 62.0229 62.6074 62.0229C62.694 62.0229 62.7857 62.0279 62.8824 62.0379C62.979 62.0446 63.0824 62.0479 63.1924 62.0479C63.3124 62.0479 63.439 62.0379 63.5724 62.0179C63.5824 62.0146 63.5974 62.0129 63.6174 62.0129C63.6574 62.0129 63.6774 62.0213 63.6774 62.0379C63.6774 62.0546 63.659 62.0729 63.6224 62.0929C63.5757 62.1163 63.524 62.1729 63.4674 62.2629C63.4107 62.3496 63.354 62.4496 63.2974 62.5629C63.244 62.6763 63.194 62.7846 63.1474 62.8879C63.104 62.9913 63.0724 63.0713 63.0524 63.1279C63.009 63.2513 62.9624 63.3913 62.9124 63.5479C62.8657 63.7046 62.8124 63.8629 62.7524 64.0229C62.839 63.9663 62.9207 63.9013 62.9974 63.8279C63.074 63.7546 63.149 63.6729 63.2224 63.5829C63.2824 63.5096 63.339 63.4296 63.3924 63.3429C63.449 63.2563 63.499 63.1663 63.5424 63.0729C63.559 63.0429 63.5807 63.0279 63.6074 63.0279C63.6307 63.0279 63.649 63.0379 63.6624 63.0579C63.679 63.0779 63.679 63.1013 63.6624 63.1279C63.5257 63.3979 63.379 63.6213 63.2224 63.7979C63.099 63.9313 62.9724 64.0396 62.8424 64.1229C62.8157 64.1396 62.789 64.1546 62.7624 64.1679C62.7357 64.1846 62.709 64.1996 62.6824 64.2129C62.6157 64.3763 62.5357 64.5279 62.4424 64.6679C62.349 64.8079 62.239 64.9213 62.1124 65.0079C61.9857 65.0946 61.8357 65.1396 61.6624 65.1429ZM61.9124 64.0379C61.9624 64.0379 62.0174 63.9946 62.0774 63.9079C62.1374 63.8213 62.1974 63.7146 62.2574 63.5879C62.2674 63.5679 62.289 63.5179 62.3224 63.4379C62.359 63.3579 62.4007 63.2613 62.4474 63.1479C62.4974 63.0346 62.549 62.9163 62.6024 62.7929C62.6557 62.6696 62.704 62.5529 62.7474 62.4429C62.794 62.3329 62.8307 62.2429 62.8574 62.1729C62.8607 62.1629 62.8624 62.1513 62.8624 62.1379C62.8624 62.1179 62.8524 62.1079 62.8324 62.1079C62.8124 62.1079 62.789 62.1163 62.7624 62.1329C62.7357 62.1463 62.7107 62.1613 62.6874 62.1779C62.644 62.2113 62.5874 62.2829 62.5174 62.3929C62.4507 62.5029 62.379 62.6329 62.3024 62.7829C62.229 62.9329 62.1574 63.0863 62.0874 63.2429C62.0207 63.3963 61.9657 63.5379 61.9224 63.6679C61.879 63.7946 61.8574 63.8896 61.8574 63.9529C61.8574 64.0096 61.8757 64.0379 61.9124 64.0379ZM61.5124 64.9379C61.6157 64.9379 61.7157 64.8879 61.8124 64.7879C61.9124 64.6879 61.994 64.5613 62.0574 64.4079C61.9607 64.4346 61.8574 64.4663 61.7474 64.5029C61.6374 64.5429 61.544 64.5896 61.4674 64.6429C61.3907 64.6963 61.3524 64.7563 61.3524 64.8229C61.3524 64.8563 61.3624 64.8829 61.3824 64.9029C61.4057 64.9263 61.449 64.9379 61.5124 64.9379Z" fill="#ECBE47"/>
</svg>
