<svg width="105" height="124" viewBox="0 0 105 124" fill="none" xmlns="http://www.w3.org/2000/svg">
<rect width="31.6185" height="10.1652" rx="5.08261" transform="matrix(0.865138 0.500884 -0.499121 0.866905 29.6465 5.42114)" fill="#ECBE47"/>
<rect width="42.61" height="19.3165" rx="9.65825" transform="matrix(0.64162 -0.76759 0.764489 0.643958 51.4531 99.6202)" fill="#ECBE47"/>
<rect width="77.8412" height="17.8318" rx="8.91588" transform="matrix(0.174145 -0.98472 0.984895 0.173153 27.7173 92.912)" fill="#ECBE47"/>
<path fill-rule="evenodd" clip-rule="evenodd" d="M46.9571 86.5132C46.3407 89.9983 48.6668 93.3204 52.1526 93.9332C55.6383 94.546 58.9637 92.2175 59.58 88.7324L64.4364 61.2717C74.2911 66.2747 80.0088 78.8154 77.6541 92.13C74.8633 107.911 61.7893 118.803 48.4525 116.459C35.1157 114.114 26.5665 99.4201 29.3574 83.639C31.6704 70.5598 41.0469 60.8387 51.7823 59.2282L46.9571 86.5132Z" fill="#ECBE47"/>
<rect width="11.3291" height="10.0743" rx="5.03717" transform="matrix(0.865138 0.500884 -0.499121 0.866905 23.1001 1.12476)" fill="#9C694A"/>
<mask id="path-6-inside-1_119_14814" fill="white">
<ellipse cx="4.84375" cy="3.76425" rx="4.84375" ry="3.76425" transform="matrix(0.865138 0.500884 -0.499121 0.866905 47.2161 35.3309)"/>
</mask>
<path d="M49.3926 40.9421C49.5778 40.6203 49.8258 40.3923 50.0512 40.2542C50.265 40.1232 50.4247 40.0915 50.4786 40.084C50.5668 40.0719 50.4196 40.1083 50.1446 39.9491L45.1533 48.6181C48.7784 50.7169 55.0791 51.1005 58.044 45.9509L49.3926 40.9421ZM50.1446 39.9491C49.8696 39.7898 49.8273 39.6437 49.861 39.7265C49.8815 39.7769 49.9339 39.9315 49.9277 40.1827C49.9211 40.4475 49.8482 40.7768 49.6629 41.0986L41.0116 36.0898C38.0467 41.2394 41.5283 46.5193 45.1533 48.6181L50.1446 39.9491ZM49.6629 41.0986C49.4777 41.4204 49.2297 41.6483 49.0043 41.7865C48.7905 41.9174 48.6308 41.9492 48.577 41.9566C48.4887 41.9688 48.636 41.9324 48.911 42.0916L53.9022 33.4226C50.2771 31.3238 43.9765 30.9401 41.0116 36.0898L49.6629 41.0986ZM48.911 42.0916C49.186 42.2508 49.2282 42.3969 49.1945 42.3142C49.174 42.2637 49.1216 42.1091 49.1279 41.858C49.1344 41.5932 49.2073 41.2638 49.3926 40.9421L58.044 45.9509C61.0089 40.8013 57.5272 35.5213 53.9022 33.4226L48.911 42.0916Z" fill="#3A464E" mask="url(#path-6-inside-1_119_14814)"/>
<mask id="path-8-inside-2_119_14814" fill="white">
<ellipse cx="4.84375" cy="3.76425" rx="4.84375" ry="3.76425" transform="matrix(0.865138 0.500884 -0.499121 0.866905 39.5161 76.4684)"/>
</mask>
<path d="M41.6926 82.0795C41.8779 81.7578 42.1259 81.5298 42.3513 81.3917C42.5651 81.2607 42.7248 81.2289 42.7786 81.2215C42.8669 81.2093 42.7196 81.2457 42.4446 81.0865L37.4534 89.7556C41.0784 91.8543 47.3791 92.238 50.344 87.0884L41.6926 82.0795ZM42.4446 81.0865C42.1696 80.9273 42.1274 80.7812 42.161 80.8639C42.1815 80.9144 42.2339 81.069 42.2277 81.3201C42.2211 81.585 42.1482 81.9143 41.963 82.236L33.3116 77.2272C30.3467 82.3768 33.8284 87.6568 37.4534 89.7556L42.4446 81.0865ZM41.963 82.236C41.7777 82.5578 41.5298 82.7858 41.3043 82.9239C41.0906 83.0549 40.9309 83.0867 40.877 83.0941C40.7887 83.1063 40.936 83.0698 41.211 83.2291L46.2022 74.56C42.5772 72.4613 36.2765 72.0776 33.3116 77.2272L41.963 82.236ZM41.211 83.2291C41.486 83.3883 41.5282 83.5344 41.4946 83.4516C41.4741 83.4012 41.4217 83.2466 41.4279 82.9955C41.4345 82.7306 41.5074 82.4013 41.6926 82.0795L50.344 87.0884C53.3089 81.9387 49.8273 76.6588 46.2022 74.56L41.211 83.2291Z" fill="#3A464E" mask="url(#path-8-inside-2_119_14814)"/>
<mask id="path-10-inside-3_119_14814" fill="white">
<ellipse cx="16.239" cy="5.6173" rx="16.239" ry="5.6173" transform="matrix(0.764489 0.643958 -0.64162 0.76759 68.8257 55.7887)"/>
</mask>
<path d="M80.8767 73.2874C83.6272 69.9969 87.0627 69.8396 87.8244 69.8492C88.7012 69.8602 88.8763 70.051 88.1433 69.7698C86.7901 69.2506 84.4188 67.9221 81.7313 65.6584L66.3324 84.0805C70.5013 87.5922 75.1441 90.527 79.5885 92.2321C81.7543 93.063 84.5241 93.8561 87.5198 93.8938C90.4003 93.9299 95.4786 93.2236 99.2244 88.7424L80.8767 73.2874ZM81.7313 65.6584C79.0439 63.3947 77.3288 61.281 76.5845 60.0334C76.1813 59.3575 76.399 59.4975 76.562 60.3625C76.7037 61.1138 77.1459 64.5374 74.3954 67.828L56.0476 52.373C52.3018 56.8542 52.4907 61.9973 53.0264 64.8387C53.5835 67.7937 54.8425 70.3942 56.0337 72.391C58.4781 76.4887 62.1635 80.5689 66.3324 84.0805L81.7313 65.6584ZM74.3954 67.828C71.6448 71.1185 68.2094 71.2758 67.4477 71.2662C66.5709 71.2552 66.3957 71.0644 67.1288 71.3456C68.482 71.8647 70.8533 73.1932 73.5408 75.457L88.9396 57.0348C84.7707 53.5232 80.128 50.5883 75.6836 48.8833C73.5178 48.0524 70.748 47.2593 67.7523 47.2216C64.8718 47.1854 59.7935 47.8918 56.0476 52.373L74.3954 67.828ZM73.5408 75.457C76.2282 77.7207 77.9433 79.8343 78.6875 81.082C79.0907 81.7578 78.8731 81.6178 78.7101 80.7529C78.5684 80.0015 78.1261 76.578 80.8767 73.2874L99.2244 88.7424C102.97 84.2612 102.781 79.1181 102.246 76.2767C101.689 73.3217 100.43 70.7212 99.2384 68.7244C96.7939 64.6267 93.1086 60.5465 88.9396 57.0348L73.5408 75.457Z" fill="#3A464E" mask="url(#path-10-inside-3_119_14814)"/>
<mask id="path-12-inside-4_119_14814" fill="white">
<ellipse cx="4.84375" cy="3.76425" rx="4.84375" ry="3.76425" transform="matrix(0.865138 0.500884 -0.499121 0.866905 45.3755 45.7363)"/>
</mask>
<path d="M47.552 51.3475C47.7373 51.0257 47.9852 50.7977 48.2107 50.6596C48.4244 50.5286 48.5841 50.4969 48.638 50.4894C48.7263 50.4773 48.579 50.5137 48.304 50.3545L43.3128 59.0235C46.9378 61.1223 53.2385 61.5059 56.2034 56.3563L47.552 51.3475ZM48.304 50.3545C48.029 50.1952 47.9868 50.0491 48.0204 50.1319C48.0409 50.1823 48.0933 50.3369 48.0871 50.5881C48.0805 50.8529 48.0076 51.1822 47.8224 51.504L39.171 46.4952C36.2061 51.6448 39.6877 56.9247 43.3128 59.0235L48.304 50.3545ZM47.8224 51.504C47.6371 51.8258 47.3891 52.0537 47.1637 52.1918C46.9499 52.3228 46.7902 52.3546 46.7364 52.362C46.6481 52.3742 46.7954 52.3378 47.0704 52.497L52.0616 43.828C48.4366 41.7292 42.1359 41.3455 39.171 46.4952L47.8224 51.504ZM47.0704 52.497C47.3454 52.6562 47.3876 52.8023 47.354 52.7196C47.3335 52.6691 47.2811 52.5145 47.2873 52.2634C47.2939 51.9986 47.3667 51.6692 47.552 51.3475L56.2034 56.3563C59.1683 51.2067 55.6866 45.9267 52.0616 43.828L47.0704 52.497Z" fill="#3A464E" mask="url(#path-12-inside-4_119_14814)"/>
<mask id="path-14-inside-5_119_14814" fill="white">
<ellipse cx="4.84375" cy="3.76425" rx="4.84375" ry="3.76425" transform="matrix(0.865138 0.500884 -0.499121 0.866905 43.571 55.9358)"/>
</mask>
<path d="M45.7476 61.5469C45.9328 61.2252 46.1808 60.9972 46.4062 60.8591C46.62 60.7281 46.7797 60.6963 46.8335 60.6889C46.9218 60.6767 46.7745 60.7131 46.4995 60.5539L41.5083 69.223C45.1334 71.3217 51.434 71.7054 54.3989 66.5558L45.7476 61.5469ZM46.4995 60.5539C46.2245 60.3947 46.1823 60.2486 46.216 60.3313C46.2365 60.3818 46.2889 60.5364 46.2826 60.7875C46.2761 61.0524 46.2032 61.3817 46.0179 61.7035L37.3665 56.6946C34.4016 61.8442 37.8833 67.1242 41.5083 69.223L46.4995 60.5539ZM46.0179 61.7035C45.8327 62.0252 45.5847 62.2532 45.3593 62.3913C45.1455 62.5223 44.9858 62.5541 44.932 62.5615C44.8437 62.5737 44.991 62.5373 45.266 62.6965L50.2572 54.0274C46.6321 51.9287 40.3314 51.545 37.3665 56.6946L46.0179 61.7035ZM45.266 62.6965C45.541 62.8557 45.5832 63.0018 45.5495 62.919C45.529 62.8686 45.4766 62.714 45.4828 62.4629C45.4894 62.198 45.5623 61.8687 45.7476 61.5469L54.3989 66.5558C57.3638 61.4061 53.8822 56.1262 50.2572 54.0274L45.266 62.6965Z" fill="#3A464E" mask="url(#path-14-inside-5_119_14814)"/>
<mask id="path-16-inside-6_119_14814" fill="white">
<ellipse cx="4.84375" cy="3.76425" rx="4.84375" ry="3.76425" transform="matrix(0.865138 0.500884 -0.499121 0.866905 41.3569 66.0631)"/>
</mask>
<path d="M43.5335 71.6742C43.7187 71.3525 43.9667 71.1245 44.1921 70.9864C44.4059 70.8554 44.5656 70.8236 44.6194 70.8162C44.7077 70.804 44.5604 70.8404 44.2854 70.6812L39.2942 79.3503C42.9192 81.449 49.2199 81.8327 52.1848 76.6831L43.5335 71.6742ZM44.2854 70.6812C44.0104 70.522 43.9682 70.3759 44.0018 70.4587C44.0223 70.5091 44.0748 70.6637 44.0685 70.9148C44.062 71.1797 43.9891 71.509 43.8038 71.8308L35.1524 66.8219C32.1875 71.9716 35.6692 77.2515 39.2942 79.3503L44.2854 70.6812ZM43.8038 71.8308C43.6186 72.1525 43.3706 72.3805 43.1452 72.5186C42.9314 72.6496 42.7717 72.6814 42.7178 72.6888C42.6296 72.701 42.7768 72.6646 43.0518 72.8238L48.0431 64.1547C44.418 62.056 38.1173 61.6723 35.1524 66.8219L43.8038 71.8308ZM43.0518 72.8238C43.3268 72.983 43.369 73.1291 43.3354 73.0464C43.3149 72.9959 43.2625 72.8413 43.2687 72.5902C43.2753 72.3253 43.3482 71.996 43.5335 71.6742L52.1848 76.6831C55.1497 71.5335 51.6681 66.2535 48.0431 64.1547L43.0518 72.8238Z" fill="#3A464E" mask="url(#path-16-inside-6_119_14814)"/>
</svg>
