<svg width="111" height="131" viewBox="0 0 111 131" fill="none" xmlns="http://www.w3.org/2000/svg">
<rect width="33.6649" height="10.8231" rx="5.41157" transform="matrix(0.865138 0.500884 -0.499121 0.866905 30.8149 5.20685)" fill="#ECBE47"/>
<rect width="45.3678" height="20.5667" rx="10.2833" transform="matrix(0.64162 -0.76759 0.764489 0.643958 54.0327 105.503)" fill="#ECBE47"/>
<rect width="82.8792" height="18.9859" rx="9.49293" transform="matrix(0.174145 -0.98472 0.984895 0.173153 28.7607 98.3603)" fill="#ECBE47"/>
<path fill-rule="evenodd" clip-rule="evenodd" d="M49.2457 91.5471C48.5895 95.2578 51.0662 98.7949 54.7775 99.4473C58.4889 100.1 62.0295 97.6207 62.6857 93.91L67.8563 64.6721C78.3488 69.9988 84.4366 83.3512 81.9295 97.5275C78.9581 114.33 65.0379 125.927 50.8379 123.431C36.638 120.934 27.5355 105.289 30.5069 88.487C32.9697 74.5613 42.953 64.211 54.3833 62.4963L49.2457 91.5471Z" fill="#ECBE47"/>
<rect width="12.0623" height="10.7264" rx="5.36318" transform="matrix(0.865138 0.500884 -0.499121 0.866905 23.8447 0.632507)" fill="#9C694A"/>
<mask id="path-6-inside-1_119_14814" fill="white">
<ellipse cx="5.15724" cy="4.00788" rx="5.15724" ry="4.00788" transform="matrix(0.865138 0.500884 -0.499121 0.866905 49.5215 37.0524)"/>
</mask>
<path d="M52.1188 43.1888C52.2873 42.8961 52.5117 42.6916 52.7088 42.5708C52.8943 42.4571 53.0211 42.4366 53.0394 42.4341C53.0566 42.4317 52.8279 42.4525 52.478 42.2499L47.4868 50.919C51.2616 53.1045 57.7382 53.4639 60.7702 48.1976L52.1188 43.1888ZM52.478 42.2499C52.1281 42.0473 52.0317 41.8383 52.0382 41.8545C52.0452 41.8716 52.0909 41.9919 52.0855 42.2099C52.0797 42.4415 52.0152 42.7386 51.8468 43.0312L43.1954 38.0224C40.1633 43.2887 43.712 48.7335 47.4868 50.919L52.478 42.2499ZM51.8468 43.0312C51.6783 43.3238 51.4539 43.5284 51.2567 43.6492C51.0712 43.7629 50.9445 43.7834 50.9262 43.7859C50.909 43.7883 51.1377 43.7675 51.4876 43.9701L56.4788 35.301C52.704 33.1155 46.2274 32.7561 43.1954 38.0224L51.8468 43.0312ZM51.4876 43.9701C51.8375 44.1727 51.9339 44.3817 51.9273 44.3655C51.9204 44.3484 51.8747 44.2281 51.8801 44.0101C51.8859 43.7785 51.9504 43.4814 52.1188 43.1888L60.7702 48.1976C63.8023 42.9313 60.2536 37.4865 56.4788 35.301L51.4876 43.9701Z" fill="#3A464E" mask="url(#path-6-inside-1_119_14814)"/>
<mask id="path-8-inside-2_119_14814" fill="white">
<ellipse cx="5.15724" cy="4.00788" rx="5.15724" ry="4.00788" transform="matrix(0.865138 0.500884 -0.499121 0.866905 41.3237 80.8524)"/>
</mask>
<path d="M43.9211 86.9888C44.0896 86.6962 44.3139 86.4916 44.5111 86.3708C44.6966 86.2572 44.8233 86.2367 44.8416 86.2341C44.8588 86.2318 44.6301 86.2525 44.2802 86.05L39.289 94.719C43.0638 96.9045 49.5404 97.2639 52.5725 91.9976L43.9211 86.9888ZM44.2802 86.05C43.9303 85.8474 43.8339 85.6384 43.8405 85.6545C43.8475 85.6717 43.8931 85.792 43.8877 86.0099C43.882 86.2415 43.8175 86.5387 43.649 86.8313L34.9976 81.8224C31.9656 87.0887 35.5142 92.5335 39.289 94.719L44.2802 86.05ZM43.649 86.8313C43.4805 87.1239 43.2562 87.3285 43.059 87.4493C42.8735 87.5629 42.7467 87.5834 42.7285 87.586C42.7113 87.5883 42.94 87.5675 43.2899 87.7701L48.2811 79.1011C44.5062 76.9156 38.0297 76.5562 34.9976 81.8224L43.649 86.8313ZM43.2899 87.7701C43.6397 87.9727 43.7361 88.1817 43.7296 88.1656C43.7226 88.1484 43.677 88.0281 43.6824 87.8102C43.6881 87.5786 43.7526 87.2814 43.9211 86.9888L52.5725 91.9976C55.6045 86.7314 52.0559 81.2866 48.2811 79.1011L43.2899 87.7701Z" fill="#3A464E" mask="url(#path-8-inside-2_119_14814)"/>
<mask id="path-10-inside-3_119_14814" fill="white">
<ellipse cx="17.29" cy="5.98086" rx="17.29" ry="5.98086" transform="matrix(0.764489 0.643958 -0.64162 0.76759 72.5298 58.8342)"/>
</mask>
<path d="M85.9545 77.9656C88.6728 74.7136 92.0551 74.5741 92.7482 74.5828C93.5565 74.593 93.6477 74.7643 92.8208 74.4471C91.28 73.856 88.6817 72.3895 85.7724 69.9389L70.3735 88.361C74.7643 92.0595 79.634 95.1324 84.266 96.9094C86.5256 97.7763 89.3794 98.5889 92.4436 98.6274C95.3927 98.6645 100.524 97.9404 104.302 93.4206L85.9545 77.9656ZM85.7724 69.9389C82.863 67.4882 80.9732 65.1742 80.1258 63.7536C79.671 62.9912 79.8549 63.0516 80.0052 63.8489C80.1341 64.5326 80.5846 67.9005 77.8662 71.1526L59.5185 55.6976C55.7405 60.2173 55.9211 65.4161 56.4696 68.3251C57.0394 71.3477 58.3321 74.0279 59.5749 76.1112C62.1226 80.3818 65.9827 84.6625 70.3735 88.361L85.7724 69.9389ZM77.8662 71.1526C75.1479 74.4046 71.7656 74.5441 71.0725 74.5354C70.2642 74.5252 70.173 74.3539 70.9999 74.6711C72.5407 75.2622 75.139 76.7287 78.0483 79.1793L93.4472 60.7572C89.0565 57.0587 84.1867 53.9858 79.5547 52.2088C77.2951 51.3419 74.4413 50.5293 71.3771 50.4908C68.428 50.4537 63.2965 51.1778 59.5185 55.6976L77.8662 71.1526ZM78.0483 79.1793C80.9577 81.63 82.8475 83.944 83.695 85.3646C84.1497 86.127 83.9658 86.0666 83.8155 85.2693C83.6866 84.5856 83.2362 81.2177 85.9545 77.9656L104.302 93.4206C108.08 88.9009 107.9 83.7021 107.351 80.7931C106.781 77.7705 105.489 75.0903 104.246 73.007C101.698 68.7363 97.838 64.4557 93.4472 60.7572L78.0483 79.1793Z" fill="#3A464E" mask="url(#path-10-inside-3_119_14814)"/>
<mask id="path-12-inside-4_119_14814" fill="white">
<ellipse cx="5.15724" cy="4.00788" rx="5.15724" ry="4.00788" transform="matrix(0.865138 0.500884 -0.499121 0.866905 47.562 48.1315)"/>
</mask>
<path d="M50.1594 54.2679C50.3278 53.9752 50.5522 53.7707 50.7494 53.6499C50.9349 53.5362 51.0616 53.5157 51.0799 53.5132C51.0971 53.5108 50.8684 53.5316 50.5185 53.329L45.5273 61.9981C49.3021 64.1836 55.7787 64.543 58.8107 59.2767L50.1594 54.2679ZM50.5185 53.329C50.1686 53.1264 50.0722 52.9174 50.0788 52.9336C50.0857 52.9507 50.1314 53.071 50.126 53.289C50.1202 53.5206 50.0558 53.8177 49.8873 54.1103L41.2359 49.1015C38.2038 54.3678 41.7525 59.8126 45.5273 61.9981L50.5185 53.329ZM49.8873 54.1103C49.7188 54.4029 49.4944 54.6075 49.2973 54.7283C49.1118 54.842 48.985 54.8625 48.9667 54.865C48.9495 54.8674 49.1782 54.8466 49.5281 55.0492L54.5193 46.3801C50.7445 44.1946 44.268 43.8352 41.2359 49.1015L49.8873 54.1103ZM49.5281 55.0492C49.878 55.2518 49.9744 55.4608 49.9679 55.4446C49.9609 55.4275 49.9153 55.3072 49.9207 55.0892C49.9264 54.8576 49.9909 54.5605 50.1594 54.2679L58.8107 59.2767C61.8428 54.0104 58.2942 48.5656 54.5193 46.3801L49.5281 55.0492Z" fill="#3A464E" mask="url(#path-12-inside-4_119_14814)"/>
<mask id="path-14-inside-5_119_14814" fill="white">
<ellipse cx="5.15724" cy="4.00788" rx="5.15724" ry="4.00788" transform="matrix(0.865138 0.500884 -0.499121 0.866905 45.6406 58.9909)"/>
</mask>
<path d="M48.238 65.1273C48.4064 64.8347 48.6308 64.6301 48.828 64.5093C49.0135 64.3957 49.1402 64.3751 49.1585 64.3726C49.1757 64.3702 48.947 64.391 48.5971 64.1885L43.6059 72.8575C47.3807 75.043 53.8573 75.4024 56.8894 70.1361L48.238 65.1273ZM48.5971 64.1885C48.2472 63.9859 48.1508 63.7769 48.1574 63.793C48.1644 63.8101 48.21 63.9305 48.2046 64.1484C48.1989 64.38 48.1344 64.6772 47.9659 64.9698L39.3145 59.9609C36.2825 65.2272 39.8311 70.672 43.6059 72.8575L48.5971 64.1885ZM47.9659 64.9698C47.7974 65.2624 47.573 65.467 47.3759 65.5878C47.1904 65.7014 47.0636 65.7219 47.0454 65.7244C47.0282 65.7268 47.2569 65.706 47.6067 65.9086L52.598 57.2396C48.8231 55.0541 42.3466 54.6947 39.3145 59.9609L47.9659 64.9698ZM47.6067 65.9086C47.9566 66.1112 48.053 66.3202 48.0465 66.3041C48.0395 66.2869 47.9939 66.1666 47.9993 65.9487C48.005 65.7171 48.0695 65.4199 48.238 65.1273L56.8894 70.1361C59.9214 64.8699 56.3728 59.4251 52.598 57.2396L47.6067 65.9086Z" fill="#3A464E" mask="url(#path-14-inside-5_119_14814)"/>
<mask id="path-16-inside-6_119_14814" fill="white">
<ellipse cx="5.15724" cy="4.00788" rx="5.15724" ry="4.00788" transform="matrix(0.865138 0.500884 -0.499121 0.866905 43.2832 69.7737)"/>
</mask>
<path d="M45.8806 75.9101C46.049 75.6175 46.2734 75.4129 46.4706 75.2921C46.6561 75.1785 46.7828 75.1579 46.8011 75.1554C46.8183 75.1531 46.5896 75.1738 46.2397 74.9713L41.2485 83.6403C45.0233 85.8258 51.4999 86.1852 54.5319 80.9189L45.8806 75.9101ZM46.2397 74.9713C45.8898 74.7687 45.7934 74.5597 45.8 74.5758C45.8069 74.5929 45.8526 74.7133 45.8472 74.9312C45.8414 75.1628 45.777 75.46 45.6085 75.7526L36.9571 70.7437C33.925 76.01 37.4737 81.4548 41.2485 83.6403L46.2397 74.9713ZM45.6085 75.7526C45.44 76.0452 45.2156 76.2498 45.0185 76.3706C44.833 76.4842 44.7062 76.5047 44.6879 76.5073C44.6707 76.5096 44.8994 76.4888 45.2493 76.6914L50.2405 68.0224C46.4657 65.8369 39.9892 65.4775 36.9571 70.7437L45.6085 75.7526ZM45.2493 76.6914C45.5992 76.894 45.6956 77.103 45.6891 77.0869C45.6821 77.0697 45.6364 76.9494 45.6419 76.7315C45.6476 76.4999 45.7121 76.2027 45.8806 75.9101L54.5319 80.9189C57.564 75.6527 54.0154 70.2079 50.2405 68.0224L45.2493 76.6914Z" fill="#3A464E" mask="url(#path-16-inside-6_119_14814)"/>
</svg>
