<svg width="128" height="151" viewBox="0 0 128 151" fill="none" xmlns="http://www.w3.org/2000/svg">
<rect x="35.5492" y="6.7944" width="38.7523" height="12.4115" rx="6.20577" transform="rotate(30 35.5492 6.7944)" fill="#ECBE47"/>
<rect x="62.4363" y="121.816" width="52.0602" height="23.6591" rx="11.8295" transform="rotate(-50 62.4363 121.816)" fill="#ECBE47"/>
<rect x="33.3269" y="113.589" width="94.9878" height="21.8677" rx="10.9338" transform="rotate(-80 33.3269 113.589)" fill="#ECBE47"/>
<path fill-rule="evenodd" clip-rule="evenodd" d="M56.9105 105.77C56.1568 110.045 59.0108 114.121 63.2851 114.874C67.5594 115.628 71.6354 112.774 72.3891 108.5L78.2914 75.0258C90.3805 81.1489 97.41 96.4659 94.5449 112.715C91.1491 131.974 75.1387 145.248 58.7848 142.365C42.4309 139.481 31.9264 121.531 35.3223 102.272C38.1368 86.3102 49.6164 74.4588 62.7751 72.5106L56.9105 105.77Z" fill="#ECBE47"/>
<rect x="27.5181" y="1.53943" width="13.8852" height="12.3006" rx="6.15029" transform="rotate(30 27.5181 1.53943)" fill="#9C694A"/>
<mask id="path-6-inside-1_41_3499" fill="white">
<ellipse cx="59.9798" cy="50.2813" rx="5.9366" ry="4.59607" transform="rotate(30 59.9798 50.2813)"/>
</mask>
<path d="M60.7909 50.7496C60.9209 50.5245 61.0909 50.375 61.2211 50.2957C61.3394 50.2236 61.3862 50.2309 61.3163 50.2404C61.1567 50.2621 60.7224 50.2437 60.1818 49.9315L55.1818 58.5918C59.3165 60.979 66.2438 61.3049 69.4512 55.7496L60.7909 50.7496ZM60.1818 49.9315C59.6411 49.6194 59.408 49.2525 59.347 49.1035C59.3203 49.0381 59.35 49.075 59.3467 49.2135C59.3431 49.3659 59.2987 49.5879 59.1687 49.8131L50.5084 44.8131C47.3011 50.3683 51.0471 56.2046 55.1818 58.5918L60.1818 49.9315ZM59.1687 49.8131C59.0387 50.0382 58.8687 50.1877 58.7385 50.267C58.6202 50.3391 58.5734 50.3318 58.6433 50.3223C58.8029 50.3006 59.2372 50.319 59.7778 50.6312L64.7778 41.9709C60.6431 39.5837 53.7158 39.2578 50.5084 44.8131L59.1687 49.8131ZM59.7778 50.6312C60.3185 50.9433 60.5516 51.3102 60.6126 51.4592C60.6393 51.5246 60.6096 51.4877 60.6129 51.3492C60.6165 51.1968 60.6609 50.9748 60.7909 50.7496L69.4512 55.7496C72.6585 50.1944 68.9125 44.3581 64.7778 41.9709L59.7778 50.6312Z" fill="#3A464E" mask="url(#path-6-inside-1_41_3499)"/>
<mask id="path-8-inside-2_41_3499" fill="white">
<ellipse cx="50.609" cy="100.484" rx="5.9366" ry="4.59607" transform="rotate(30 50.609 100.484)"/>
</mask>
<path d="M51.4201 100.953C51.55 100.728 51.7201 100.578 51.8503 100.499C51.9686 100.427 52.0154 100.434 51.9454 100.443C51.7858 100.465 51.3515 100.447 50.8109 100.135L45.8109 108.795C49.9456 111.182 56.873 111.508 60.0803 105.953L51.4201 100.953ZM50.8109 100.135C50.2703 99.8224 50.0372 99.4555 49.9762 99.3065C49.9494 99.2411 49.9791 99.278 49.9758 99.4165C49.9723 99.5689 49.9278 99.7909 49.7978 100.016L41.1376 95.0161C37.9303 100.571 41.6762 106.408 45.8109 108.795L50.8109 100.135ZM49.7978 100.016C49.6679 100.241 49.4978 100.391 49.3676 100.47C49.2493 100.542 49.2025 100.535 49.2725 100.525C49.4321 100.504 49.8664 100.522 50.407 100.834L55.407 92.1739C51.2723 89.7867 44.3449 89.4608 41.1376 95.0161L49.7978 100.016ZM50.407 100.834C50.9476 101.146 51.1807 101.513 51.2417 101.662C51.2685 101.728 51.2388 101.691 51.2421 101.552C51.2457 101.4 51.2901 101.178 51.4201 100.953L60.0803 105.953C63.2877 100.397 59.5417 94.5611 55.407 92.1739L50.407 100.834Z" fill="#3A464E" mask="url(#path-8-inside-2_41_3499)"/>
<mask id="path-10-inside-3_41_3499" fill="white">
<ellipse cx="94.4885" cy="86.3821" rx="19.8897" ry="6.86312" transform="rotate(40 94.4885 86.3821)"/>
</mask>
<path d="M100.532 91.4535C103.185 88.2917 106.456 88.2026 106.976 88.2098C107.616 88.2187 107.498 88.3411 106.436 87.9342C104.425 87.1638 101.258 85.3563 97.7905 82.447L82.3636 100.832C87.3112 104.984 92.7493 108.392 97.8498 110.346C100.343 111.301 103.407 112.163 106.645 112.208C109.763 112.251 115.046 111.494 118.917 106.88L100.532 91.4535ZM97.7905 82.447C94.3233 79.5377 91.9932 76.732 90.8854 74.8857C90.3002 73.9103 90.4004 73.7732 90.5201 74.4015C90.6176 74.9129 91.0978 78.1489 88.4447 81.3107L70.0596 65.8838C66.1884 70.4974 66.3607 75.832 66.9446 78.8953C67.5508 82.0755 68.9316 84.9436 70.3053 87.2332C73.1154 91.9169 77.4159 96.6805 82.3636 100.832L97.7905 82.447ZM88.4447 81.3107C85.7916 84.4725 82.5214 84.5616 82.0008 84.5544C81.3613 84.5455 81.4789 84.4231 82.5411 84.8301C84.5518 85.6004 87.7195 87.4079 91.1866 90.3172L106.614 71.9321C101.666 67.7805 96.2278 64.3726 91.1273 62.4185C88.634 61.4633 85.5696 60.6014 82.3326 60.5567C79.2144 60.5136 73.9309 61.2702 70.0596 65.8838L88.4447 81.3107ZM91.1866 90.3172C94.6538 93.2265 96.9839 96.0322 98.0917 97.8785C98.6769 98.8539 98.5767 98.991 98.457 98.3627C98.3595 97.8513 97.8793 94.6153 100.532 91.4535L118.917 106.88C122.789 102.267 122.616 96.9322 122.032 93.8689C121.426 90.6887 120.045 87.8206 118.672 85.531C115.862 80.8474 111.561 76.0837 106.614 71.9321L91.1866 90.3172Z" fill="#3A464E" mask="url(#path-10-inside-3_41_3499)"/>
<mask id="path-12-inside-4_41_3499" fill="white">
<ellipse cx="57.7407" cy="62.98" rx="5.9366" ry="4.59607" transform="rotate(30 57.7407 62.98)"/>
</mask>
<path d="M58.5518 63.4483C58.6818 63.2231 58.8518 63.0736 58.982 62.9943C59.1003 62.9223 59.1471 62.9295 59.0771 62.939C58.9175 62.9607 58.4833 62.9423 57.9426 62.6301L52.9426 71.2904C57.0773 73.6776 64.0047 74.0035 67.212 68.4483L58.5518 63.4483ZM57.9426 62.6301C57.402 62.318 57.1689 61.9511 57.1079 61.8021C57.0812 61.7367 57.1108 61.7736 57.1076 61.9121C57.104 62.0645 57.0595 62.2865 56.9296 62.5117L48.2693 57.5117C45.062 63.0669 48.8079 68.9032 52.9426 71.2904L57.9426 62.6301ZM56.9296 62.5117C56.7996 62.7368 56.6295 62.8863 56.4993 62.9656C56.381 63.0377 56.3342 63.0304 56.4042 63.0209C56.5638 62.9992 56.9981 63.0176 57.5387 63.3298L62.5387 54.6695C58.404 52.2823 51.4766 51.9564 48.2693 57.5117L56.9296 62.5117ZM57.5387 63.3298C58.0793 63.6419 58.3124 64.0088 58.3734 64.1579C58.4002 64.2232 58.3705 64.1863 58.3738 64.0478C58.3774 63.8954 58.4218 63.6734 58.5518 63.4483L67.212 68.4483C70.4194 62.893 66.6734 57.0567 62.5387 54.6695L57.5387 63.3298Z" fill="#3A464E" mask="url(#path-12-inside-4_41_3499)"/>
<mask id="path-14-inside-5_41_3499" fill="white">
<ellipse cx="55.546" cy="75.4272" rx="5.9366" ry="4.59607" transform="rotate(30 55.546 75.4272)"/>
</mask>
<path d="M56.3571 75.8955C56.4871 75.6704 56.6571 75.5209 56.7873 75.4416C56.9056 75.3695 56.9524 75.3767 56.8824 75.3862C56.7228 75.4079 56.2886 75.3895 55.7479 75.0774L50.7479 83.7376C54.8826 86.1248 61.81 86.4507 65.0173 80.8955L56.3571 75.8955ZM55.7479 75.0774C55.2073 74.7652 54.9742 74.3984 54.9132 74.2493C54.8865 74.1839 54.9161 74.2209 54.9129 74.3594C54.9093 74.5118 54.8648 74.7338 54.7348 74.9589L46.0746 69.9589C42.8673 75.5141 46.6132 81.3505 50.7479 83.7376L55.7479 75.0774ZM54.7348 74.9589C54.6049 75.184 54.4348 75.3335 54.3046 75.4128C54.1863 75.4849 54.1395 75.4777 54.2095 75.4681C54.3691 75.4464 54.8034 75.4649 55.344 75.777L60.344 67.1167C56.2093 64.7296 49.2819 64.4036 46.0746 69.9589L54.7348 74.9589ZM55.344 75.777C55.8846 76.0891 56.1177 76.456 56.1787 76.6051C56.2055 76.6704 56.1758 76.6335 56.1791 76.495C56.1827 76.3426 56.2271 76.1206 56.3571 75.8955L65.0173 80.8955C68.2247 75.3402 64.4787 69.5039 60.344 67.1167L55.344 75.777Z" fill="#3A464E" mask="url(#path-14-inside-5_41_3499)"/>
<mask id="path-16-inside-6_41_3499" fill="white">
<ellipse cx="52.8481" cy="87.7857" rx="5.9366" ry="4.59607" transform="rotate(30 52.8481 87.7857)"/>
</mask>
<path d="M53.6592 88.254C53.7892 88.0289 53.9592 87.8794 54.0894 87.8001C54.2077 87.728 54.2545 87.7353 54.1846 87.7448C54.0249 87.7665 53.5907 87.7481 53.0501 87.4359L48.0501 96.0962C52.1847 98.4834 59.1121 98.8093 62.3195 93.254L53.6592 88.254ZM53.0501 87.4359C52.5094 87.1238 52.2763 86.7569 52.2153 86.6078C52.1886 86.5425 52.2182 86.5794 52.215 86.7179C52.2114 86.8703 52.1669 87.0923 52.037 87.3174L43.3767 82.3174C40.1694 87.8727 43.9154 93.709 48.0501 96.0962L53.0501 87.4359ZM52.037 87.3174C51.907 87.5426 51.737 87.6921 51.6068 87.7714C51.4885 87.8434 51.4416 87.8362 51.5116 87.8267C51.6712 87.805 52.1055 87.8234 52.6461 88.1356L57.6461 79.4753C53.5114 77.0881 46.584 76.7622 43.3767 82.3174L52.037 87.3174ZM52.6461 88.1356C53.1868 88.4477 53.4199 88.8146 53.4809 88.9636C53.5076 89.029 53.4779 88.9921 53.4812 88.8536C53.4848 88.7012 53.5292 88.4792 53.6592 88.254L62.3195 93.254C65.5268 87.6988 61.7808 81.8625 57.6461 79.4753L52.6461 88.1356Z" fill="#3A464E" mask="url(#path-16-inside-6_41_3499)"/>
</svg>
