<svg width="274" height="166" viewBox="0 0 274 166" fill="none" xmlns="http://www.w3.org/2000/svg">
<path fill-rule="evenodd" clip-rule="evenodd" d="M274 32H0V34H274V32ZM274 56H0V58H274V56ZM0 80H274V82H0V80ZM274 104H0V106H274V104ZM0 128H274V130H0V128Z" fill="white" fill-opacity="0.49"/>
<path d="M63.8809 66.4061C63.8809 69.526 61.4667 72.0553 58.4885 72.0553C55.5104 72.0553 53.0961 69.526 53.0961 66.4061C53.0961 63.2861 55.5104 60.7569 58.4885 60.7569C61.4667 60.7569 63.8809 63.2861 63.8809 66.4061ZM63.5086 47.3059C63.5086 50.4259 61.0944 52.9551 58.1162 52.9551C55.1381 52.9551 52.7238 50.4259 52.7238 47.3059C52.7238 44.186 55.1381 41.6567 58.1162 41.6567C61.0944 41.6567 63.5086 44.186 63.5086 47.3059ZM0 106.606C0 105.799 3.88345 102.479 8.6299 99.228C18.8347 92.2386 26.2045 84.5915 30.491 76.5444C40.3211 58.0903 37.2071 38.8488 24.1062 37.0916C16.8602 36.1197 7.68627 41.4069 7.68627 46.5549C7.68627 48.4648 8.17483 48.6186 13.487 48.3813C19.9866 48.091 24.3838 54.4176 20.8665 58.9988C15.3088 66.2375 1.92157 62.079 1.92157 53.1139C1.92157 45.2565 6.70313 39.0032 15.1189 35.8544C33.1288 29.116 50.2724 41.5383 48.7712 60.239C47.5409 75.5667 34.1955 89.8818 8.28777 103.664C2.14054 106.934 0 107.694 0 106.606Z" fill="#888D8F"/>
</svg>
