<svg width="274" height="144" viewBox="0 0 274 144" fill="none" xmlns="http://www.w3.org/2000/svg">
<path fill-rule="evenodd" clip-rule="evenodd" d="M274 17H0V19H274V17ZM274 41H0V43H274V41ZM0 65H274V67H0V65ZM274 89H0V91H274V89ZM0 113H274V115H0V113Z" fill="white" fill-opacity="0.49"/>
<path d="M2.43443 80.865C2.32819 80.8196 2.18698 80.6951 2.12063 80.5883L2 80.394L2.01481 42.4036L2.02961 4.41322L2.22509 4.22118L2.42058 4.02914L7.3678 4.01151C11.9835 3.99506 12.3284 4.00076 12.514 4.09663C12.6234 4.15315 12.7513 4.27212 12.798 4.361C12.8714 4.50027 12.8831 9.76798 12.8829 42.4583V80.394L12.7622 80.5885C12.5284 80.9652 12.7184 80.9523 7.4286 80.9498C3.44204 80.9479 2.59506 80.9335 2.43466 80.865H2.43443ZM16.5351 80.8492C16.4223 80.7927 16.2743 80.6719 16.2062 80.5806L16.0824 80.4148V42.4863C16.0824 6.33634 16.0873 4.54892 16.188 4.36791C16.3729 4.0357 16.5214 3.99975 17.7089 4C18.6574 4.00013 18.7941 4.01264 18.9639 4.11433C19.0686 4.1771 19.1897 4.28934 19.2329 4.36377C19.2973 4.47456 19.3143 7.79594 19.3269 22.6945C19.3354 32.702 19.3638 40.8899 19.39 40.8899C19.4509 40.8899 20.4884 39.7522 21.0122 39.1109C22.9982 36.6793 24.546 33.5962 25.2617 30.646C25.6266 29.1418 25.8556 27.4268 25.8586 26.175C25.8609 25.2179 25.9988 24.8515 26.4325 24.6493C26.6974 24.5258 27.1667 24.5219 27.4017 24.6413C27.6569 24.7709 27.9422 25.1162 27.9762 25.3366C27.9926 25.4423 28.0206 25.873 28.0385 26.2936C28.1775 29.5538 29.4009 32.5411 31.4208 34.5526C32.2095 35.338 32.8678 35.8118 33.7829 36.2523C35.0719 36.8729 36.2642 37.1111 37.7894 37.0525C39.4711 36.988 40.6712 36.6514 41.8026 35.9269C43.5008 34.8395 44.5303 32.908 45.0485 29.8368C45.338 28.1215 45.4404 26.4233 45.4411 23.326C45.4424 20.0208 45.3414 18.4161 44.9889 16.1007C44.1297 10.457 41.6092 7.28293 37.3171 6.43935C35.8904 6.15896 34.3935 6.09077 33.5266 6.26667C32.3041 6.51472 31.3783 7.14206 30.9417 8.0182C30.7163 8.4705 30.6381 8.81785 30.6018 9.52936C30.5736 10.08 30.5787 10.1083 30.7894 10.5791C31.1727 11.4354 31.6406 11.8508 32.6467 12.2277C33.1124 12.4021 33.2381 12.4813 33.58 12.8154C34.5035 13.7179 34.7195 14.8373 34.289 16.4908C34.0679 17.3401 33.5193 18.3025 32.8643 18.9903C30.5351 21.4362 26.639 21.4663 24.3015 19.0565C23.5425 18.274 23.0536 17.4139 22.7715 16.365C22.6331 15.8506 22.6135 15.6644 22.6138 14.8671C22.6138 13.8303 22.6855 13.2506 22.9299 12.3C23.8787 8.60947 26.9359 5.61697 30.9071 4.49171C32.3458 4.08402 32.8335 4.02903 34.9788 4.03254C36.9607 4.03577 38.1288 4.11469 39.7489 4.35477C46.5083 5.35644 51.1288 8.47495 53.4393 13.5949C54.5817 16.1264 55.1787 19.0824 55.249 22.5555C55.2757 23.8731 55.2225 24.6746 55.0362 25.7638C54.3777 29.6121 52.2065 33.0272 48.8223 35.5377C45.8 37.7798 42.0417 39.0674 38.0585 39.2255C36.4852 39.288 36.0393 39.1628 33.7142 38.0061C32.8189 37.5606 31.913 37.1436 31.7011 37.0793C29.9422 36.5457 28.4454 37.0646 27.6945 38.4684C27.3995 39.0199 27.2706 39.3967 27.1238 40.1372C26.9581 40.9729 26.9236 41.3984 26.9275 42.5596C26.9369 45.3889 27.6487 47.1343 29.0608 47.7905C29.518 48.003 29.9795 48.0752 30.6434 48.0382C31.5424 47.9882 31.8908 47.8534 34.4123 46.5801C34.89 46.3389 35.5493 46.0503 35.8774 45.9388L36.4738 45.7361L37.8193 45.7399C39.2592 45.7439 40.0875 45.834 41.5595 46.1466C46.921 47.2854 51.4599 50.6325 53.6682 55.0761C54.2304 56.2073 54.5036 56.9191 54.77 57.9461C55.178 59.5194 55.3146 60.8297 55.2547 62.5951C55.1406 65.953 54.5822 68.7325 53.54 71.129C51.2503 76.3945 46.6098 79.5804 39.7489 80.597C38.1288 80.8371 36.9607 80.916 34.9788 80.9193C32.8335 80.9228 32.3458 80.8678 30.9071 80.4601C26.9359 79.3348 23.8787 76.3424 22.9299 72.6519C22.6855 71.7012 22.6141 71.1215 22.6138 70.0847C22.6138 69.2874 22.6331 69.1012 22.7715 68.5868C23.0536 67.5379 23.5425 66.6778 24.3015 65.8953C26.639 63.4855 30.5351 63.5156 32.8643 65.9615C33.5193 66.6493 34.0679 67.6118 34.289 68.4611C34.7195 70.1145 34.5035 71.2339 33.58 72.1364C33.2381 72.4705 33.1124 72.5497 32.6467 72.7242C31.6406 73.1011 31.1727 73.5164 30.7894 74.3727C30.5787 74.8435 30.5736 74.8719 30.6018 75.4225C30.6381 76.134 30.7163 76.4813 30.9417 76.9336C31.3783 77.8098 32.3041 78.4371 33.5266 78.6852C34.7096 78.9252 37.1105 78.6888 38.5729 78.1881C39.3029 77.9382 40.2047 77.4861 40.7681 77.0877C41.3773 76.6568 42.296 75.7158 42.7601 75.0473C44.261 72.8855 45.0806 69.8095 45.3502 65.3266C45.5021 62.8007 45.4773 59.2548 45.2924 57.0733C44.7617 50.8096 42.5303 48.0813 37.7894 47.8993C36.2642 47.8407 35.0719 48.0789 33.7829 48.6995C32.8678 49.1401 32.2095 49.6138 31.4208 50.3992C29.4086 52.4031 28.1863 55.38 28.0415 58.63C28.0221 59.0662 27.9927 59.5095 27.9764 59.6152C27.9422 59.8357 27.6569 60.1809 27.4017 60.3106C27.1667 60.4299 26.6974 60.426 26.4325 60.3025C26 60.1009 25.8595 59.741 25.8595 58.8351C25.8595 58.0511 25.7258 56.6724 25.5565 55.7109C24.8391 51.6368 22.8936 47.7834 19.9496 44.6053C19.6728 44.3064 19.4228 44.0619 19.3942 44.0619C19.3648 44.0619 19.3355 51.9693 19.3268 62.228C19.3136 77.9437 19.2998 80.4164 19.225 80.5603C19.0555 80.8859 18.8005 80.9521 17.7143 80.9519C16.905 80.9519 16.7054 80.9345 16.5351 80.8492Z" fill="#888D8F"/>
</svg>
