<svg width="275" height="150" viewBox="0 0 275 150" fill="none" xmlns="http://www.w3.org/2000/svg">
<path fill-rule="evenodd" clip-rule="evenodd" d="M275 23H1V25H275V23ZM275 47H1V49H275V47ZM1 71H275V73H1V71ZM275 95H1V97H275V95ZM1 119H275V121H1V119Z" fill="white" fill-opacity="0.49"/>
<path d="M28.4651 80.6462C26.2455 81.3907 24.4112 82.6472 22.962 84.4166C21.5127 86.1851 20.6295 88.1174 20.3125 90.2119C19.9955 92.3064 20.2559 94.378 21.0938 96.4258C21.9316 98.4744 23.5055 100.127 25.8152 101.384C26.3587 101.384 26.6982 101.617 26.8345 102.082C26.97 102.547 26.7659 102.78 26.2233 102.78C24.0037 102.314 22.0562 101.36 20.3805 99.9177C17.2554 97.2637 15.5344 93.8431 15.2174 89.6533C15.0363 87.5588 15.2287 85.5339 15.7949 83.5786C16.361 81.6234 17.1422 79.8311 18.1386 78.2019C19.3614 76.4801 20.8107 74.9901 22.4865 73.7336C22.577 73.6402 22.8375 73.4313 23.2677 73.1053C23.698 72.7793 24.1168 72.477 24.5245 72.1977C24.9321 71.9184 25.5434 71.4761 26.3587 70.8707L23.8452 58.4421C21.6259 60.3507 19.4294 62.4566 17.2555 64.7608C15.0815 67.065 13.1114 69.4979 11.3451 72.0576C9.57885 74.6182 8.16351 77.3295 7.09916 80.1924C6.03489 83.0552 5.50275 86.0687 5.50275 89.2347C5.50275 92.1672 6.10279 94.9252 7.30303 97.5087C8.50318 100.092 10.0997 102.338 12.0924 104.246C14.0852 106.155 16.3836 107.656 18.9878 108.75C21.592 109.844 24.2301 110.391 26.9022 110.391C26.9931 110.391 27.4115 110.344 28.1591 110.251C28.9066 110.158 29.6988 110.042 30.5364 109.902C31.3749 109.763 32.1447 109.611 32.8469 109.448C33.5481 109.285 33.8996 109.111 33.8996 108.925L33.4916 106.97C31.7255 97.7995 30.0495 89.025 28.4651 80.6462V80.6462ZM30.8425 80.3668L36.4133 108.087C39.6291 106.829 41.8024 104.677 42.9349 101.628C44.0674 98.5793 44.3272 95.4838 43.7159 92.3416C43.1046 89.1995 41.6669 86.4177 39.4019 83.9972C37.1377 81.5767 34.2846 80.3668 30.8425 80.3668V80.3668ZM23.7093 43.0115C25.113 42.266 26.4153 41.1496 27.6155 39.6596C28.8158 38.1704 29.9251 36.5756 30.9445 34.8767C31.963 33.1779 32.8469 31.4438 33.5936 29.6744C34.3412 27.9059 34.9413 26.3005 35.3939 24.8572C35.892 23.3213 36.2315 21.5987 36.4133 19.6901C36.5942 17.7816 36.3001 16.1761 35.5303 14.872C34.9867 13.7089 34.2734 13.0339 33.3904 12.8471C32.5065 12.6612 31.6235 12.7308 30.7404 13.0568C29.8574 13.3829 29.0198 13.9063 28.2268 14.6279C27.4346 15.3496 26.8568 15.9893 26.495 16.548C25.498 18.3631 24.6261 20.388 23.8791 22.6226C23.1318 24.8572 22.6223 27.1728 22.3506 29.5704C22.0788 31.9672 22.0449 34.2714 22.2487 36.483C22.4524 38.6938 22.9393 40.8703 23.7093 43.0115V43.0115ZM21.6713 45.1756C20.9013 42.1039 20.222 39.0895 19.6332 36.1332C19.0444 33.1779 18.7501 30.1405 18.7501 27.0213C18.7501 24.7409 18.9086 22.2384 19.2256 19.5157C19.5426 16.7929 20.12 14.1389 20.9579 11.5554C21.7957 8.97185 22.9506 6.65619 24.4226 4.6084C25.8949 2.55973 27.853 1.07059 30.2989 0.139221C30.5253 0.0467008 30.7516 0 30.9779 0C31.2951 0 31.6689 0.185922 32.0993 0.558648C32.5297 0.930492 32.9823 1.47768 33.4581 2.19934C33.9331 2.921 34.3523 3.66557 34.7149 4.43394C35.0767 5.20141 35.3485 5.7257 35.5303 6.00502C36.7528 8.37883 37.647 10.9042 38.2136 13.5802C38.7795 16.2572 39.1078 18.9218 39.1987 21.5749C39.3796 25.5788 39.1644 29.5352 38.5531 33.4457C37.9419 37.3554 36.7073 41.1725 34.8504 44.8962C34.2169 46.0135 33.5713 47.1423 32.9146 48.2825C32.2579 49.4236 31.4769 50.5285 30.5707 51.5991C30.3898 51.7859 30.0615 52.1234 29.5856 52.6116C29.1098 53.1006 28.6229 53.6011 28.1248 54.113C27.6267 54.625 27.1852 55.1026 26.8002 55.544C26.4153 55.9864 26.2233 56.2542 26.2233 56.3476L29.0078 70.3121C29.0258 70.4037 30.4009 70.3121 30.4009 70.3121C33.0586 70.3464 35.8723 70.7888 38.3157 71.7783C40.6707 72.8956 42.6974 74.4314 44.3957 76.3867C46.0941 78.342 47.4521 80.5413 48.4714 82.9847C49.4908 85.429 50 87.9077 50 90.4216C50 92.9346 49.6374 95.4953 48.9129 98.1017C47.056 103.036 44.0897 106.69 40.014 109.064C39.5605 109.343 38.9149 109.658 38.0773 110.007C37.2397 110.356 36.9114 110.903 37.0923 111.648C38.1794 116.719 38.9149 120.209 39.3007 122.121C39.6857 124.033 39.9686 126.5 40.1495 129.523C40.3304 132.413 39.8434 135.012 38.6886 137.338C37.5338 139.673 35.9829 141.568 34.0351 143.031C32.0881 144.502 30.3101 145.357 28.7026 145.621C27.0943 145.877 25.9961 146 25.408 146C23.3696 146 21.3769 145.603 19.4294 144.81C17.029 143.885 15.0136 142.467 13.3832 140.555C11.7527 138.642 10.9375 136.316 10.9375 133.576C10.9375 131.849 11.4244 130.078 12.3981 128.263C13.3719 126.447 14.6513 125.143 16.2364 124.359C18.0027 123.425 19.5992 123.169 21.0259 123.584C22.4524 124.007 23.63 124.8 24.5584 125.963C25.4868 127.126 26.1324 128.536 26.495 130.183C26.8568 131.84 26.8345 133.382 26.4264 134.827C26.0192 136.272 25.1928 137.497 23.9471 138.493C22.7016 139.497 20.9692 139.947 18.7501 139.858C19.6558 141.533 20.9239 142.59 22.5544 143.031C24.1848 143.48 25.8606 143.506 27.5812 143.136C29.3027 142.766 30.9213 142.079 32.4388 141.074C33.9562 140.079 35.1453 138.995 36.0052 137.832C36.5487 136.995 36.9568 135.902 37.2286 134.554C37.5004 133.197 37.659 131.796 37.7035 130.324C37.749 128.862 37.7035 127.716 37.5681 126.906C37.4318 126.086 37.2054 124.817 36.8882 123.099C35.5303 117.468 34.6695 113.926 34.3069 112.481C34.126 112.02 33.639 111.869 32.8469 112.032C32.0539 112.195 31.386 112.346 30.8425 112.481C26.9477 113.001 23.6866 112.763 21.0598 111.788C16.9837 110.67 13.3945 108.68 10.2921 105.817C7.18978 102.955 4.69885 99.4869 2.81928 95.4133C0.939787 91.3406 0 88.2452 0 86.1269C0 84.0095 0 82.671 0 82.1124C0 78.342 0.634069 74.8041 1.90221 71.499C4.30252 66.3319 7.14451 61.5843 10.428 57.2552C13.7115 52.9261 17.4593 48.8993 21.6713 45.1756V45.1756Z" fill="#888D8F"/>
</svg>
