<svg width="20" height="68" viewBox="0 0 20 68" fill="none" xmlns="http://www.w3.org/2000/svg">
<path d="M2.4754 0V31.0906C2.4754 31.0906 2.4754 33.1864 2.4754 37.3778C5.33164 34.6927 8.53697 33.3173 12.0914 33.2518C14.3129 33.2519 16.2171 34.2015 17.8039 36.1007C19.2003 37.869 19.9302 39.8337 19.9937 41.9949C20.0571 43.6977 19.6446 45.6624 18.756 47.8891C18.4386 48.806 17.7404 49.7884 16.6614 50.8363C15.8362 51.6222 14.9794 52.4408 14.0908 53.2922C9.39384 56.8287 4.69691 60.398 0 64V0H2.4754V0ZM10.1872 39.539C9.42557 38.6221 8.44176 38.1637 7.2358 38.1637C5.71247 38.1637 4.47477 39.0478 3.52269 40.8161C2.8245 42.1914 2.4754 45.4332 2.4754 50.5415V58.9899C2.53888 59.2519 4.31609 57.6473 7.80705 54.1763C9.71119 52.3426 10.9489 50.1813 11.5202 47.6927C11.774 46.7103 11.901 45.7279 11.901 44.7456C11.901 42.5844 11.3297 40.8488 10.1872 39.539" fill="#E2E2E2"/>
</svg>
