<svg width="25" height="29" viewBox="0 0 25 29" fill="none" xmlns="http://www.w3.org/2000/svg">
<path d="M25 12.8612C25 14.0994 24.0552 15.1032 22.8897 15.1032C21.7242 15.1032 20.7793 14.0994 20.7793 12.8612C20.7793 11.623 21.7242 10.6192 22.8897 10.6192C24.0552 10.6192 25 11.623 25 12.8612ZM24.8543 5.28081C24.8543 6.51904 23.9095 7.52283 22.744 7.52283C21.5785 7.52283 20.6336 6.51904 20.6336 5.28081C20.6336 4.04257 21.5785 3.03878 22.744 3.03878C23.9095 3.03878 24.8543 4.04257 24.8543 5.28081ZM0 28.8155C0 28.4953 1.5198 27.1777 3.37734 25.8875C7.37103 23.1135 10.2552 20.0786 11.9328 16.8849C15.7798 9.56089 14.5611 1.92437 9.43405 1.22698C6.59828 0.841258 3.00805 2.93963 3.00805 4.98276C3.00805 5.74072 3.19925 5.80177 5.27816 5.7076C7.82181 5.59237 9.54269 8.10327 8.16617 9.92144C5.99114 12.7943 0.752012 11.1439 0.752012 7.58585C0.752012 4.46743 2.62329 1.98563 5.91684 0.73597C12.9651 -1.93833 19.6742 2.99177 19.0868 10.4136C18.6053 16.4969 13.3825 22.1782 3.24345 27.648C0.837707 28.9458 0 29.2474 0 28.8155V28.8155Z" fill="black"/>
</svg>
