<svg width="21" height="30" viewBox="0 0 21 30" fill="none" xmlns="http://www.w3.org/2000/svg">
<path d="M0.872031 29.0031C0.832067 28.9861 0.778953 28.9392 0.753992 28.899L0.708618 28.826L0.714188 14.5357L0.719758 0.245463L0.793286 0.173224L0.866819 0.100988L2.72774 0.0943556C4.46395 0.0881703 4.59368 0.0903129 4.6635 0.126375C4.70467 0.147634 4.75275 0.192385 4.77035 0.22582C4.79793 0.278207 4.80234 2.25968 4.80227 14.5563V28.826L4.75688 28.8991C4.66893 29.0408 4.7404 29.036 2.75061 29.035C1.25105 29.0343 0.932453 29.0289 0.872117 29.0031H0.872031ZM6.17607 28.9972C6.13364 28.9759 6.07797 28.9305 6.05235 28.8962L6.00576 28.8338V14.5668C6.00576 0.968852 6.00761 0.296507 6.04551 0.228418C6.11503 0.103455 6.17092 0.0899346 6.6176 0.0900273C6.97436 0.0900774 7.02578 0.0947809 7.08965 0.133033C7.12906 0.156643 7.17461 0.198865 7.19086 0.22686C7.21506 0.268535 7.22147 1.51789 7.22622 7.12204C7.22941 10.8864 7.24008 13.9663 7.24993 13.9663C7.27287 13.9663 7.66312 13.5384 7.86013 13.2971C8.60719 12.3825 9.1894 11.2228 9.45862 10.113C9.59588 9.54724 9.682 8.90214 9.68314 8.43124C9.68401 8.07125 9.73586 7.93341 9.89901 7.85736C9.99866 7.81091 10.1752 7.80944 10.2636 7.85433C10.3596 7.9031 10.4669 8.03297 10.4797 8.11589C10.4858 8.15565 10.4964 8.31764 10.5031 8.47587C10.5554 9.7022 11.0156 10.8259 11.7754 11.5825C12.0721 11.878 12.3197 12.0562 12.6639 12.2219C13.1488 12.4553 13.5973 12.5449 14.171 12.5229C14.8035 12.4986 15.255 12.372 15.6805 12.0995C16.3193 11.6905 16.7066 10.9639 16.9015 9.80865C17.0104 9.16344 17.0489 8.52466 17.0492 7.35957C17.0497 6.11632 17.0117 5.5127 16.8791 4.64175C16.5559 2.51885 15.6078 1.32492 13.9933 1.0076C13.4567 0.902129 12.8936 0.876479 12.5675 0.942647C12.1077 1.03595 11.7594 1.27193 11.5952 1.60149C11.5104 1.77163 11.481 1.90228 11.4673 2.16992C11.4567 2.37704 11.4586 2.38769 11.5379 2.56479C11.6821 2.88689 11.8581 3.04313 12.2365 3.1849C12.4117 3.25052 12.459 3.28031 12.5876 3.40599C12.935 3.74545 13.0162 4.16654 12.8543 4.78848C12.7711 5.10795 12.5647 5.46997 12.3184 5.72871C11.4422 6.64873 9.9767 6.66006 9.09744 5.7536C8.81193 5.45926 8.62801 5.13572 8.5219 4.74118C8.46986 4.54767 8.46249 4.47766 8.46259 4.17773C8.46259 3.78775 8.48955 3.56969 8.58149 3.2121C8.93839 1.8239 10.0884 0.698259 11.5821 0.274986C12.1233 0.121631 12.3068 0.100946 13.1138 0.102266C13.8592 0.103481 14.2986 0.133169 14.908 0.223474C17.4506 0.600258 19.1886 1.7733 20.0578 3.69918C20.4875 4.65142 20.712 5.76333 20.7385 7.06975C20.7485 7.56537 20.7285 7.86686 20.6584 8.27656C20.4107 9.72412 19.594 11.0087 18.321 11.9531C17.1842 12.7964 15.7705 13.2808 14.2722 13.3403C13.6804 13.3638 13.5127 13.3167 12.6381 12.8816C12.3013 12.714 11.9605 12.5571 11.8808 12.533C11.2192 12.3322 10.6562 12.5274 10.3737 13.0555C10.2627 13.2629 10.2143 13.4047 10.159 13.6832C10.0967 13.9975 10.0837 14.1576 10.0852 14.5944C10.0887 15.6587 10.3565 16.3152 10.8876 16.562C11.0596 16.6419 11.2332 16.6691 11.483 16.6552C11.8211 16.6364 11.9522 16.5857 12.9006 16.1067C13.0804 16.016 13.3283 15.9074 13.4517 15.8655L13.6761 15.7893L14.1822 15.7907C14.7238 15.7922 15.0354 15.8261 15.5891 15.9437C17.6059 16.372 19.3132 17.6311 20.1438 19.3025C20.3553 19.728 20.4581 19.9958 20.5583 20.3821C20.7118 20.9739 20.7632 21.4668 20.7406 22.1308C20.6977 23.3939 20.4876 24.4394 20.0956 25.3409C19.2343 27.3215 17.4888 28.5199 14.908 28.9023C14.2986 28.9927 13.8592 29.0223 13.1138 29.0236C12.3068 29.0249 12.1233 29.0042 11.5821 28.8508C10.0884 28.4276 8.93839 27.3019 8.58149 25.9137C8.48955 25.5561 8.4627 25.3381 8.46259 24.9481C8.46259 24.6482 8.46986 24.5781 8.5219 24.3846C8.62801 23.9901 8.81193 23.6666 9.09744 23.3722C9.9767 22.4658 11.4422 22.4771 12.3184 23.3971C12.5647 23.6559 12.7711 24.0179 12.8543 24.3373C13.0162 24.9593 12.935 25.3804 12.5876 25.7198C12.459 25.8455 12.4117 25.8753 12.2365 25.9409C11.8581 26.0827 11.6821 26.2389 11.5379 26.561C11.4586 26.7381 11.4567 26.7488 11.4673 26.9559C11.481 27.2235 11.5104 27.3542 11.5952 27.5243C11.7594 27.8539 12.1077 28.0899 12.5675 28.1832C13.0125 28.2735 13.9156 28.1845 14.4657 27.9962C14.7403 27.9022 15.0795 27.7322 15.2914 27.5823C15.5206 27.4202 15.8661 27.0662 16.0407 26.8148C16.6053 26.0016 16.9136 24.8446 17.015 23.1583C17.0721 22.2082 17.0628 20.8744 16.9933 20.0538C16.7936 17.6977 15.9543 16.6714 14.171 16.6029C13.5973 16.5809 13.1488 16.6705 12.6639 16.9039C12.3197 17.0697 12.0721 17.2479 11.7754 17.5433C11.0185 18.2971 10.5587 19.4169 10.5042 20.6393C10.4969 20.8034 10.4859 20.9702 10.4797 21.0099C10.4669 21.0929 10.3596 21.2227 10.2636 21.2715C10.1752 21.3164 9.99866 21.3149 9.89901 21.2685C9.73634 21.1926 9.68347 21.0573 9.68347 20.7165C9.68347 20.4216 9.63317 19.903 9.56949 19.5413C9.29963 18.0088 8.56785 16.5594 7.46045 15.3639C7.35631 15.2515 7.2623 15.1595 7.25153 15.1595C7.24047 15.1595 7.22944 18.1339 7.22618 21.9927C7.22119 27.9043 7.21603 28.8344 7.18787 28.8885C7.1241 29.011 7.02819 29.0359 6.61961 29.0358C6.31522 29.0358 6.24014 29.0293 6.17607 28.9972Z" fill="#020202"/>
</svg>
