<svg width="13" height="38" viewBox="0 0 13 38" fill="none" xmlns="http://www.w3.org/2000/svg">
<path d="M7.40094 20.9901C6.82384 21.1839 6.34692 21.5109 5.97013 21.9714C5.59329 22.4317 5.36368 22.9347 5.28125 23.4798C5.19882 24.0249 5.26654 24.5641 5.48438 25.0971C5.70222 25.6303 6.11143 26.0603 6.71195 26.3876C6.85327 26.3876 6.94153 26.4482 6.97698 26.5692C7.01219 26.6903 6.95914 26.7509 6.81805 26.7509C6.24095 26.6298 5.73461 26.3814 5.29893 26.006C4.48641 25.3152 4.03895 24.4249 3.95653 23.3344C3.90943 22.7893 3.95947 22.2622 4.10667 21.7533C4.25385 21.2444 4.45698 20.778 4.71604 20.3539C5.03396 19.9058 5.41078 19.518 5.84649 19.1909C5.87002 19.1666 5.93774 19.1123 6.04959 19.0274C6.16147 18.9426 6.27038 18.8639 6.37637 18.7912C6.48236 18.7185 6.64129 18.6034 6.85327 18.4458L6.19974 15.211C5.62274 15.7077 5.05164 16.2558 4.48643 16.8556C3.9212 17.4553 3.40897 18.0885 2.94972 18.7547C2.4905 19.4212 2.12251 20.1269 1.84578 20.872C1.56907 21.6171 1.43072 22.4015 1.43072 23.2255C1.43072 23.9887 1.58673 24.7065 1.89879 25.379C2.21083 26.0514 2.62591 26.636 3.14403 27.1325C3.66214 27.6293 4.25974 28.02 4.93682 28.3049C5.61391 28.5895 6.29982 28.7319 6.99459 28.7319C7.01821 28.7319 7.12699 28.7198 7.32136 28.6955C7.51573 28.6714 7.72169 28.6411 7.93946 28.6046C8.15746 28.5684 8.35763 28.529 8.54019 28.4865C8.72252 28.4441 8.81391 28.3987 8.81391 28.3503L8.70781 27.8414C8.24863 25.4547 7.81286 23.1709 7.40094 20.9901V20.9901ZM8.01904 20.9174L9.46746 28.1322C10.3036 27.8049 10.8686 27.2447 11.1631 26.4511C11.4575 25.6576 11.5251 24.8519 11.3661 24.0341C11.2072 23.2163 10.8334 22.4923 10.2445 21.8623C9.65581 21.2323 8.91399 20.9174 8.01904 20.9174V20.9174ZM6.16441 11.1948C6.52939 11.0007 6.86798 10.7102 7.18004 10.3224C7.4921 9.93477 7.78054 9.51967 8.04557 9.0775C8.31037 8.63533 8.54018 8.18399 8.73433 7.72348C8.9287 7.26319 9.08473 6.84533 9.20243 6.46968C9.33193 6.06994 9.4202 5.62158 9.46746 5.12483C9.51449 4.62808 9.43803 4.21022 9.23787 3.8708C9.09655 3.56807 8.91109 3.39239 8.6815 3.34377C8.45169 3.29538 8.2221 3.3135 7.99252 3.39836C7.76293 3.48321 7.54515 3.61944 7.33897 3.80727C7.13301 3.9951 6.98277 4.1616 6.88871 4.307C6.62947 4.77944 6.40278 5.30646 6.20857 5.88807C6.01426 6.46968 5.88179 7.07238 5.81116 7.69641C5.7405 8.32022 5.73167 8.91994 5.78465 9.49559C5.83764 10.071 5.96422 10.6375 6.16441 11.1948V11.1948ZM5.63453 11.758C5.43434 10.9585 5.25771 10.174 5.10463 9.40454C4.95154 8.63533 4.87501 7.8448 4.87501 7.03293C4.87501 6.4394 4.91623 5.78808 4.99866 5.07942C5.08106 4.37076 5.23121 3.67999 5.44905 3.00756C5.66689 2.33514 5.96717 1.73243 6.34986 1.19945C6.73268 0.666232 7.24178 0.278648 7.87772 0.0362357C7.93657 0.012155 7.99541 0 8.05426 0C8.13673 0 8.23392 0.0483907 8.34581 0.145401C8.45771 0.242183 8.5754 0.384603 8.69911 0.572432C8.8226 0.760261 8.9316 0.954054 9.02589 1.15404C9.11995 1.35379 9.19061 1.49025 9.23787 1.56295C9.55572 2.18079 9.78821 2.83808 9.93555 3.53459C10.0827 4.23132 10.168 4.92484 10.1917 5.61539C10.2387 6.65751 10.1827 7.68724 10.0238 8.70505C9.86489 9.72263 9.54391 10.7161 9.06111 11.6853C8.89638 11.9761 8.72854 12.2699 8.55779 12.5667C8.38705 12.8637 8.18399 13.1513 7.94838 13.4299C7.90135 13.4785 7.81598 13.5664 7.69227 13.6934C7.56856 13.8207 7.44195 13.951 7.31244 14.0842C7.18294 14.2175 7.06814 14.3418 6.96806 14.4567C6.86798 14.5718 6.81805 14.6415 6.81805 14.6658L7.54203 18.3004C7.54671 18.3243 7.90425 18.3004 7.90425 18.3004C8.59524 18.3093 9.3268 18.4245 9.96207 18.682C10.5744 18.9728 11.1013 19.3726 11.5429 19.8815C11.9845 20.3904 12.3375 20.9628 12.6026 21.5988C12.8676 22.235 13 22.8801 13 23.5344C13 24.1885 12.9057 24.8549 12.7174 25.5333C12.2346 26.8176 11.4633 27.7687 10.4036 28.3865C10.2857 28.4592 10.1179 28.5411 9.90011 28.6319C9.68233 28.7227 9.59696 28.8652 9.64399 29.059C9.92663 30.379 10.1179 31.2872 10.2182 31.7849C10.3183 32.2826 10.3918 32.9247 10.4389 33.7113C10.4859 34.4636 10.3593 35.1401 10.059 35.7456C9.75879 36.3533 9.35556 36.8464 8.84913 37.2271C8.34292 37.6101 7.88062 37.8326 7.46268 37.9014C7.04451 37.9679 6.75898 38 6.60607 38C6.0761 38 5.55798 37.8968 5.05164 37.6904C4.42754 37.4496 3.90354 37.0803 3.47963 36.5827C3.05571 36.085 2.84376 35.4796 2.84376 34.7663C2.84376 34.3168 2.97034 33.8558 3.22351 33.3834C3.47669 32.911 3.80934 32.5715 4.22147 32.3674C4.68071 32.1243 5.0958 32.0578 5.46673 32.1656C5.83764 32.2757 6.14379 32.4821 6.38519 32.7848C6.62657 33.0875 6.79442 33.4545 6.88871 33.8834C6.98277 34.3145 6.97698 34.7159 6.87087 35.092C6.765 35.4681 6.55012 35.7869 6.22624 36.046C5.90241 36.3075 5.45199 36.4244 4.87501 36.4015C5.11051 36.8372 5.44023 37.1125 5.86414 37.2271C6.28805 37.3441 6.72376 37.351 7.17112 37.2546C7.61871 37.1583 8.03955 36.9794 8.43408 36.718C8.82862 36.4588 9.13778 36.1768 9.36135 35.874C9.50267 35.6561 9.60878 35.3718 9.67944 35.0209C9.7501 34.6677 9.79133 34.303 9.80292 33.92C9.81474 33.5393 9.80292 33.2412 9.7677 33.0302C9.73226 32.8169 9.67342 32.4867 9.59094 32.0395C9.23787 30.574 9.01407 29.652 8.91979 29.2759C8.87275 29.156 8.74615 29.1165 8.54019 29.159C8.334 29.2014 8.16036 29.2408 8.01904 29.2759C7.0064 29.4112 6.15853 29.3493 5.47556 29.0954C4.41577 28.8046 3.48257 28.2865 2.67596 27.5414C1.86934 26.7965 1.2217 25.8938 0.733012 24.8336C0.244345 23.7736 0 22.9679 0 22.4166C0 21.8655 0 21.5171 0 21.3717C0 20.3904 0.164858 19.4696 0.494574 18.6093C1.11865 17.2645 1.85757 16.0288 2.71129 14.902C3.565 13.7753 4.53941 12.7272 5.63453 11.758V11.758Z" fill="black"/>
</svg>
