<svg width="30" height="36" viewBox="0 0 30 36" fill="none" xmlns="http://www.w3.org/2000/svg">
<ellipse cx="14.6552" cy="4.50577" rx="7.78274" ry="4.27823" fill="#DEBB76"/>
<path d="M0 29.4797C0 22.7874 5.42515 17.3622 12.1174 17.3622H17.3605C24.0528 17.3622 29.4779 22.7874 29.4779 29.4797V29.4797C29.4779 30.7666 28.4346 31.8099 27.1477 31.8099H2.33027C1.0433 31.8099 0 30.7666 0 29.4797V29.4797Z" fill="#95DC89"/>
<rect x="12.8184" y="15.8477" width="3.72843" height="1.51468" fill="#F3CC94"/>
<ellipse cx="14.6821" cy="8.784" rx="8.73852" ry="7.82826" fill="#F3CC94"/>
<rect x="11.6326" y="17.3405" width="6.18978" height="14.4732" fill="#D9D9D9"/>
<path d="M16.4386 30.6224C16.4124 31.583 17.6242 32.0241 18.2216 31.2713L25.784 21.742C26.2083 21.2074 25.9841 20.4142 25.3427 20.1807L18.1124 17.5491C17.471 17.3157 16.7894 17.7792 16.7708 18.4615L16.4386 30.6224Z" fill="#47C644"/>
<path d="M12.7859 30.6224C12.8121 31.583 11.6004 32.0241 11.003 31.2713L3.44054 21.742C3.01624 21.2074 3.24043 20.4142 3.88183 20.1807L11.1121 17.5491C11.7535 17.3157 12.4351 17.7792 12.4537 18.4615L12.7859 30.6224Z" fill="#47C644"/>
<path fill-rule="evenodd" clip-rule="evenodd" d="M13.4077 14.0151V12.6526H18.2317C18.2319 12.6657 18.2321 12.6789 18.2321 12.692C18.2321 13.9773 17.0471 15.0193 15.5853 15.0193C14.6826 15.0193 13.8854 14.6219 13.4077 14.0151Z" fill="#D9B27A"/>
<rect x="13.4077" y="12.6526" width="3.95964" height="0.500644" fill="white"/>
<ellipse cx="15" cy="3.5" rx="7" ry="3" fill="#DEBB76"/>
<path d="M18.7912 5.81095L19.464 7.00453C19.571 7.19441 19.7554 7.32834 19.969 7.37145L21.3121 7.64244C21.503 7.68096 21.5785 7.91332 21.4467 8.05669L20.5194 9.06535C20.3719 9.22582 20.3015 9.44252 20.3265 9.65905L20.4838 11.0201C20.5062 11.2136 20.3085 11.3572 20.1314 11.2761L18.8856 10.7059C18.6874 10.6152 18.4595 10.6152 18.2613 10.7059L17.0155 11.2761C16.8384 11.3572 16.6408 11.2136 16.6631 11.0201L16.8204 9.65905C16.8454 9.44252 16.775 9.22582 16.6275 9.06535L15.7002 8.05669C15.5684 7.91332 15.6439 7.68096 15.8348 7.64244L17.1779 7.37145C17.3916 7.32834 17.5759 7.19441 17.6829 7.00453L18.3557 5.81095C18.4513 5.64129 18.6956 5.64129 18.7912 5.81095Z" fill="#FAC849" fill-opacity="0.7" stroke="#D70B0B" stroke-width="0.5"/>
<path d="M11.0539 5.81095L11.7267 7.00453C11.8337 7.19441 12.0181 7.32834 12.2317 7.37145L13.5748 7.64244C13.7657 7.68096 13.8412 7.91332 13.7094 8.05669L12.7821 9.06535C12.6346 9.22582 12.5642 9.44252 12.5892 9.65905L12.7465 11.0201C12.7689 11.2136 12.5712 11.3572 12.3941 11.2761L11.1483 10.7059C10.9501 10.6152 10.7222 10.6152 10.524 10.7059L9.2782 11.2761C9.10111 11.3572 8.90345 11.2136 8.92581 11.0201L9.08311 9.65905C9.10813 9.44252 9.03772 9.22582 8.89021 9.06535L7.96294 8.05669C7.83113 7.91332 7.90663 7.68096 8.09754 7.64244L9.44059 7.37145C9.65425 7.32834 9.83859 7.19441 9.94561 7.00453L10.6184 5.81095C10.714 5.64129 10.9583 5.64129 11.0539 5.81095Z" fill="#FAC849" fill-opacity="0.7" stroke="#D70B0B" stroke-width="0.5"/>
<rect x="13.9083" y="7.46417" width="1.63847" height="0.682697" fill="#D70B0B"/>
</svg>
