<svg width="19" height="24" viewBox="0 0 19 24" fill="none" xmlns="http://www.w3.org/2000/svg">
<path fill-rule="evenodd" clip-rule="evenodd" d="M6.83043 0.215714C7.05869 0.0793423 7.31865 0.00506132 7.58449 0.000249622C7.85034 -0.00456208 8.11282 0.060263 8.34586 0.188286C15.1807 3.36314 19.0499 9.95629 18.8116 15.4694C18.7087 17.7854 17.8807 19.93 16.2744 21.4951C14.6664 23.062 12.3573 23.9774 9.43443 23.9826C8.25315 24.0557 7.06917 23.8921 5.95192 23.5016C4.83467 23.1111 3.80664 22.5014 2.92813 21.7083C2.04962 20.9152 1.33831 19.9547 0.835918 18.8831C0.333521 17.8114 0.0501532 16.6503 0.00243175 15.4677V15.454C-0.0324617 14.0831 0.308735 12.7289 0.989001 11.5382C1.66927 10.3475 2.66262 9.36583 3.86129 8.69971C3.96542 8.64191 4.08045 8.60643 4.19905 8.59556C4.31765 8.58468 4.43721 8.59864 4.55012 8.63654C4.66302 8.67445 4.76679 8.73547 4.8548 8.8157C4.94281 8.89594 5.01314 8.99364 5.06129 9.10257C5.4785 10.0488 6.06333 10.9118 6.78757 11.65C7.63443 10.5443 8.02529 9.11629 8.01329 7.546C7.99957 5.67743 7.41329 3.67343 6.42929 1.96771C6.25838 1.68004 6.2047 1.33764 6.27938 1.01147C6.35406 0.685295 6.55138 0.40036 6.83043 0.215714Z" fill="#FCAA0C"/>
</svg>
