<svg width="26" height="33" viewBox="0 0 26 33" fill="none" xmlns="http://www.w3.org/2000/svg">
<path d="M0 30.0205C0 24.3297 4.61332 19.7164 10.3041 19.7164H14.7626C20.4535 19.7164 25.0668 24.3297 25.0668 30.0205V30.0205C25.0668 31.1149 24.1796 32.0021 23.0852 32.0021H1.98157C0.887179 32.0021 0 31.1149 0 30.0205V30.0205Z" fill="#DE605D"/>
<rect x="10.7012" y="19.7164" width="3.6659" height="12.2857" fill="#922A2E"/>
<rect x="14.3676" y="19.7164" width="1.18894" height="12.2857" fill="#CA9206"/>
<rect x="9.51245" y="19.7164" width="1.18894" height="12.2857" fill="#CA9206"/>
<path d="M11.5811 17.9508C11.877 17.0223 13.1908 17.0223 13.4867 17.9508L15.7651 25.1008C15.9707 25.7458 15.4893 26.4044 14.8124 26.4044H10.2554C9.57843 26.4044 9.09707 25.7458 9.30263 25.1008L11.5811 17.9508Z" fill="#F8F3F3"/>
<circle cx="10.3543" cy="25.8096" r="1.23848" fill="#F8F3F3"/>
<circle cx="12.5347" cy="26.2061" r="1.23848" fill="#F8F3F3"/>
<circle cx="14.7139" cy="25.8096" r="1.23848" fill="#F8F3F3"/>
<rect x="10.9002" y="18.4285" width="3.1705" height="1.28802" fill="#FFD79D"/>
<ellipse cx="12.5342" cy="10.8985" rx="6.78686" ry="8.2235" fill="#FFD79D"/>
<ellipse cx="4.16206" cy="13.6729" rx="3.36866" ry="2.77419" fill="#F5F5F5"/>
<ellipse cx="4.16206" cy="9.9078" rx="3.36866" ry="2.77419" fill="#F5F5F5"/>
<ellipse cx="19.3216" cy="6.24215" rx="3.36866" ry="2.77419" fill="#F5F5F5"/>
<ellipse cx="20.1144" cy="9.9078" rx="3.36866" ry="2.77419" fill="#F5F5F5"/>
<ellipse cx="20.1144" cy="13.6729" rx="3.36866" ry="2.77419" fill="#F5F5F5"/>
<ellipse cx="5.15382" cy="6.24215" rx="3.36866" ry="2.77419" fill="#F5F5F5"/>
<ellipse cx="12.1384" cy="4.21076" rx="7.9758" ry="4.21083" fill="#F5F5F5"/>
<ellipse cx="14.8265" cy="11.7058" rx="1.21913" ry="1.37394" fill="white"/>
<ellipse cx="10.2209" cy="11.5511" rx="1.21913" ry="1.37394" fill="white"/>
<ellipse cx="10.1435" cy="11.8026" rx="0.599888" ry="0.541834" fill="black"/>
<ellipse cx="14.5943" cy="11.9574" rx="0.599888" ry="0.541834" fill="black"/>
<path fill-rule="evenodd" clip-rule="evenodd" d="M14.575 14.9985V15.0096C14.5711 15.9108 13.622 16.6405 12.4517 16.6405C11.7275 16.6405 11.0879 16.361 10.7047 15.9344V14.9763H14.5747C14.5748 14.9837 14.5749 14.9911 14.575 14.9985Z" fill="#E7B874"/>
<rect x="10.7047" y="14.9763" width="3.251" height="0.425727" fill="white"/>
</svg>
