<svg width="24" height="31" viewBox="0 0 24 31" fill="none" xmlns="http://www.w3.org/2000/svg">
<path d="M0 28.6798C0 23.2661 4.38867 18.8774 9.80237 18.8774H14.1976C19.6113 18.8774 24 23.2661 24 28.6798V28.6798C24 29.7626 23.1223 30.6403 22.0395 30.6403H1.96047C0.877734 30.6403 0 29.7626 0 28.6798V28.6798Z" fill="#DE605D"/>
<rect x="10.245" y="18.8774" width="3.50988" height="11.7628" fill="#922A2E"/>
<rect x="13.755" y="18.8774" width="1.13834" height="11.7628" fill="#CA9206"/>
<rect x="9.10675" y="18.8774" width="1.13834" height="11.7628" fill="#CA9206"/>
<path d="M11.5236 15.8191C11.6715 15.3548 12.3285 15.3548 12.4764 15.8191L15.2838 24.6288C15.3866 24.9513 15.1459 25.2806 14.8074 25.2806H9.19263C8.85413 25.2806 8.61345 24.9513 8.71623 24.6288L11.5236 15.8191Z" fill="#F8F3F3"/>
<circle cx="9.91307" cy="24.7114" r="1.18577" fill="#F8F3F3"/>
<circle cx="12" cy="25.0909" r="1.18577" fill="#F8F3F3"/>
<circle cx="14.0869" cy="24.7114" r="1.18577" fill="#F8F3F3"/>
<rect x="10.4348" y="17.6442" width="3.03557" height="1.2332" fill="#FAE1BD"/>
<ellipse cx="12" cy="10.4348" rx="6.49802" ry="7.87352" fill="#FAE1BD"/>
<ellipse cx="3.98421" cy="13.0909" rx="3.2253" ry="2.65613" fill="#F5F5F5"/>
<ellipse cx="3.98421" cy="9.48614" rx="3.2253" ry="2.65613" fill="#F5F5F5"/>
<ellipse cx="18.498" cy="5.97632" rx="3.2253" ry="2.65613" fill="#F5F5F5"/>
<ellipse cx="19.2569" cy="9.48614" rx="3.2253" ry="2.65613" fill="#F5F5F5"/>
<ellipse cx="19.2569" cy="13.0909" rx="3.2253" ry="2.65613" fill="#F5F5F5"/>
<ellipse cx="4.93275" cy="5.97632" rx="3.2253" ry="2.65613" fill="#F5F5F5"/>
<ellipse cx="11.6206" cy="4.03162" rx="7.63636" ry="4.03162" fill="#F5F5F5"/>
<circle cx="9.5" cy="11.5" r="0.5" fill="black"/>
<circle cx="9.5" cy="11.5" r="0.5" fill="black"/>
<circle cx="9.5" cy="11.5" r="0.5" fill="black"/>
<circle cx="9.5" cy="11.5" r="0.5" fill="black"/>
<circle cx="9.5" cy="11.5" r="0.5" fill="black"/>
<circle cx="14.5" cy="11.5" r="0.5" fill="black"/>
<circle cx="14.5" cy="11.5" r="0.5" fill="black"/>
<circle cx="14.5" cy="11.5" r="0.5" fill="black"/>
<circle cx="14.5" cy="11.5" r="0.5" fill="black"/>
<circle cx="14.5" cy="11.5" r="0.5" fill="black"/>
</svg>
