<svg width="25" height="32" viewBox="0 0 25 32" fill="none" xmlns="http://www.w3.org/2000/svg">
<path d="M0.0158691 29.8075C0.0158691 24.1354 4.61398 19.5373 10.286 19.5373H14.7298C20.4019 19.5373 25 24.1354 25 29.8075V29.8075C25 30.8982 24.1158 31.7825 23.025 31.7825H1.9909C0.900122 31.7825 0.0158691 30.8982 0.0158691 29.8075V29.8075Z" fill="#9E7943"/>
<path d="M0 30.3547C0 26.245 3.33154 22.9135 7.44121 22.9135H17.5553C21.6649 22.9135 24.9965 26.245 24.9965 30.3547V30.3547C24.9965 31.145 24.3558 31.7857 23.5655 31.7857H1.431C0.640683 31.7857 0 31.145 0 30.3547V30.3547Z" fill="#AD75F4"/>
<rect x="19.2874" y="20.4446" width="1.19582" height="11.341" fill="#AD75F4"/>
<rect x="3.89606" y="21.0233" width="1.19582" height="10.7624" fill="#AD75F4"/>
<rect x="10.8802" y="18.2537" width="3.16005" height="1.28377" fill="#9E7943"/>
<ellipse cx="12.479" cy="9.12295" rx="9.93302" ry="9.12295" fill="#3C301F"/>
<ellipse cx="12.4982" cy="12.0547" rx="6.71202" ry="6.88561" fill="#9E7943"/>
<ellipse cx="14.7163" cy="10.7045" rx="1.21511" ry="1.36941" fill="white"/>
<ellipse cx="10.1259" cy="10.5502" rx="1.21511" ry="1.36941" fill="white"/>
<ellipse cx="10.0681" cy="10.8781" rx="0.694347" ry="0.771496" fill="black"/>
<ellipse cx="14.697" cy="11.0131" rx="0.617197" ry="0.752209" fill="black"/>
<mask id="mask0_177_14720" style="mask-type:alpha" maskUnits="userSpaceOnUse" x="9" y="14" width="7" height="11">
<path d="M9.60371 19.5188C9.60371 18.2901 9.95994 17.1986 10.5106 16.427C11.0619 15.6545 11.7784 15.2356 12.5176 15.2356C13.2567 15.2356 13.9732 15.6545 14.5246 16.427C15.0752 17.1986 15.4315 18.2901 15.4315 19.5188C15.4315 20.7476 15.0752 21.8391 14.5246 22.6107C13.9732 23.3832 13.2567 23.8021 12.5176 23.8021C11.7784 23.8021 11.0619 23.3832 10.5106 22.6107C9.95994 21.8391 9.60371 20.7476 9.60371 19.5188Z" stroke="#CA9206"/>
</mask>
<g mask="url(#mask0_177_14720)">
<rect x="19.1717" y="26.1151" width="12.9611" height="6.59629" transform="rotate(-180 19.1717 26.1151)" fill="#CA9206"/>
</g>
<path fill-rule="evenodd" clip-rule="evenodd" d="M15.4997 15C15.4999 15.0083 15.5 15.0166 15.5 15.025C15.5 15.8396 14.3947 16.5 13.0312 16.5C12.1892 16.5 11.4456 16.2481 11 15.8636V15H15.4997Z" fill="white"/>
</svg>
