<svg width="22" height="14" viewBox="0 0 22 14" fill="none" xmlns="http://www.w3.org/2000/svg">
<path d="M7.578 0.885999C7.722 0.526 8.472 0.346 9.828 0.346C10.176 0.346 10.602 0.376 11.106 0.436C11.622 0.484 11.88 0.532 11.88 0.579999L8.82 6.808L11.988 12.766C12.024 12.826 11.766 12.886 11.214 12.946C10.662 12.994 10.194 13.018 9.81 13.018C8.286 13.018 7.452 12.814 7.308 12.406L5.958 8.968L4.734 12.514C4.614 12.85 3.846 13.018 2.43 13.018C2.082 13.018 1.65 12.994 1.134 12.946C0.618 12.898 0.384 12.832 0.432 12.748L3.24 6.52L0.324 0.579999C0.288 0.519999 0.534 0.465999 1.062 0.417999C1.602 0.357999 2.058 0.327999 2.43 0.327999C3.942 0.327999 4.77 0.543999 4.914 0.975999L6.156 4L7.578 0.885999ZM14.7531 13.036C13.6611 13.036 13.1151 12.916 13.1151 12.676V1.012C13.1151 0.603999 13.3011 0.399999 13.6731 0.399999H16.8411C18.6171 0.399999 19.8951 0.765999 20.6751 1.498C21.4671 2.23 21.8631 3.292 21.8631 4.684C21.8631 5.836 21.4911 6.892 20.7471 7.852C20.3751 8.332 19.8291 8.716 19.1091 9.004C18.3891 9.292 17.5491 9.436 16.5891 9.436V12.658C16.5891 12.802 16.3611 12.904 15.9051 12.964C15.4611 13.012 15.0771 13.036 14.7531 13.036ZM16.5891 3.532V6.376H16.8231C17.2431 6.376 17.5971 6.244 17.8851 5.98C18.1731 5.716 18.3171 5.344 18.3171 4.864C18.3171 4.384 18.2151 4.042 18.0111 3.838C17.8191 3.634 17.4711 3.532 16.9671 3.532H16.5891Z" fill="#52A9EA"/>
</svg>
